<?xml version="1.0" encoding="utf-8" ?>
<svg baseProfile="full" height="200mm" version="1.1" viewBox="0,0,200,200" width="200mm" xmlns="http://www.w3.org/2000/svg" xmlns:ev="http://www.w3.org/2001/xml-events" xmlns:xlink="http://www.w3.org/1999/xlink"><defs /><rect fill="#1a1a1a" height="200" width="200" x="0" y="0" /><text alignment-baseline="middle" fill="#e1ed5e" style="dominant-baseline: central; font-size:9.0px; font-family:Arial;" text-anchor="middle" x="100.0" y="100.0">2024</text><line stroke="#e1ed5e" stroke-width="0.3" x1="100.0" x2="100.0" y1="15.0" y2="10.0" /><path d="M 100.0 14.0 a86.0,86.0 0 0,1 42.35913384403234,11.155469271406648" fill="none" id="id25" stroke="none" /><text fill="#e1ed5e" style="font-size:6.75px; font-family:Arial;" text-anchor="middle"><textPath startOffset="22.145653131862478" xlink:href="#id25">January</textPath></text><path d="M 100.0 79.0 l 0.0 -15.709605831600697 a36.7096058316007,36.7096058316007 0 0,0 0.6301691988705863,0.005409244666843927 l -0.2696762740217315 15.707290985128289" fill="#ff4106" stroke="none" /><path d="M 100.36049292484886 79.00309439819443 l 0.39741359220904565 -23.147349379981296 a44.15076069770048,44.15076069770048 0 0,0 0.7576831585285733,0.01951523047650361 l -0.7947100648083603 23.13711643215475" fill="#ffbb11" stroke="none" /><path d="M 101.08105385017728 79.02784411241856 l 1.1870885421651647 -23.029200584750775 a44.05977577470399,44.05977577470399 0 0,0 0.755007578871645,0.0454193810957096 l -1.582240473169272 23.005429225830373" fill="#ffb911" stroke="none" /><path d="M 101.80034050326958 79.07731436759882 l 3.550663454055428 -41.26409148754981 a62.416572253831504,62.416572253831504 0 0,0 1.0667302397100482,0.10102046277579012 l -4.258493257150489 41.197059269268834" fill="#46ff2c" stroke="none" /><path d="M 102.51750503828377 79.15144685158666 l 2.828467263120027 -23.423766454070588 a44.59392002091607,44.59392002091607 0 0,0 0.7592054960145593,0.09829435128263632 l -3.230150581025378 23.371760506587556" fill="#ffc212" stroke="none" /><path d="M 103.23170211078529 79.25015418208739 l 3.6272306475325355 -23.28942275685748 a44.57019334918639,44.57019334918639 0 0,0 0.7549819270276196,0.12423198878807752 l -4.026490077613226 23.223724769573735" fill="#ffc112" stroke="none" /><path d="M 103.94208987418118 79.37332000966035 l 4.421581321601917 -23.13558185704476 a44.55431020530123,44.55431020530123 0 0,0 0.7500050115389494,0.1500220074231896 l -4.818082818671823 23.05627045295871" fill="#ffc111" stroke="none" /><path d="M 104.64783097203109 79.52079915486377 l 3.479840729691453 -15.332820328725177 a36.72274374074028,36.72274374074028 0 0,0 0.6135633335750315,0.14479927607736462 l -3.742536217006369 15.270824909001584" fill="#ff4106" stroke="none" /><path d="M 105.3480935250658 79.69241777938227 l 6.005693762574437 -22.804597433406105 a44.58215472914928,44.58215472914928 0 0,0 0.7384048857716887,0.2012555351577501 l -6.3962800492808185 22.698141404104213" fill="#ffc112" stroke="none" /><path d="M 105.69591212413111 79.78721728523813 l 6.4043111002893705 -22.726640770925428 a44.61176404676236,44.61176404676236 0 0,0 0.7353293073705289,0.21404364457141034 l -6.793500420041504 22.613353432051504" fill="#ffc212" stroke="none" /><path d="M 109.71004243097381 81.37971332152246 l 9.081563165426505 -17.415094818693234 a40.64078198727605,40.64078198727605 0 0,0 0.6158262554062558,0.3278927944520503 l -9.379178236619321 17.25663155651861" fill="#ff830c" stroke="none" /><path d="M 110.34350942703115 81.72400993836675 l 10.629137144678532 -18.780666870396878 a42.579898158638464,42.579898158638464 0 0,0 0.6330364248982916,0.36548375032186703 l -10.949966037437221 18.595436222798842" fill="#ffa20f" stroke="none" /><line stroke="#e1ed5e" stroke-width="0.3" x1="143.13028292997686" x2="145.6673583964461" y1="26.7553504044142" y2="22.446841604673864" /><path d="M 143.63769802327073 25.89364864446614 a86.0,86.0 0 0,1 29.32050498858742,28.57503671076993" fill="none" id="id26" stroke="none" /><text fill="#e1ed5e" style="font-size:6.75px; font-family:Arial;" text-anchor="middle"><textPath startOffset="20.669276256404974" xlink:href="#id26">February</textPath></text><path d="M 111.27062007382361 82.28071324371311 l 22.302415987519133 -35.06310226521382 a62.55501052028735,62.55501052028735 0 0,0 0.9011328312714754,0.5841034140521714 l -22.901034451047614 34.67508500945776" fill="#45ff2d" stroke="none" /><path d="M 111.8722381534696 82.67804972795209 l 6.78070478668519 -9.893250927591314 a32.99393060345364,32.99393060345364 0 0,0 0.464436564183481,0.3242127917613592 l -6.949536442042434 9.775393320024827" fill="#ff0000" stroke="none" /><path d="M 112.45986205192187 83.09580414077388 l 26.124314980435 -35.44265059092462 a65.03023181982296,65.03023181982296 0 0,0 0.8929177607469488,0.6700621342104716 l -26.728885730092713 34.98896942945014" fill="#30ff39" stroke="none" /><path d="M 113.03279911837588 83.53348406188908 l 23.236654443358944 -29.358753807572548 a58.44166843042292,58.44166843042292 0 0,0 0.7813073043330755,0.629365858528574 l -23.73721251804728 28.955539655250565" fill="#78ff26" stroke="none" /><path d="M 113.31354834802062 83.75963576809568 l 16.1773262292203 -19.733707603197878 a46.517153048393325,46.517153048393325 0 0,0 0.6131972316911727,0.5115509397920592 l -16.513697795073362 19.45309447949395" fill="#ffdf14" stroke="none" /><path d="M 113.59037401385872 83.9905735841838 l 23.963141829655374 -28.22852082087097 a58.02811842482041,58.02811842482041 0 0,0 0.7538695931924695,0.65117459946862 l -24.444190902610703 27.81300208893763" fill="#7dff26" stroke="none" /><path d="M 114.13192950727249 84.46653392183569 l 24.309580772322246 -26.720487680534934 a57.12395575254292,57.12395575254292 0 0,0 0.7196808589000585,0.6661258587865269 l -24.76469140253627 26.29924407561603" fill="#89ff24" stroke="none" /><path d="M 114.39649973595853 84.71141617570332 l 24.861076130478047 -26.401601316580603 a57.26455098915601,57.26455098915601 0 0,0 0.7098827717640984,0.6800516371520523 l -25.310631388107456 25.970937549122972" fill="#87ff25" stroke="none" /><path d="M 114.65682725009322 84.96080404539774 l 25.918146759210572 -26.59430183905786 a58.13498649170205,58.13498649170205 0 0,0 0.7087155364291052,0.7026581750800398 l -26.37085421576964 26.14546365374916" fill="#7cff26" stroke="none" /><path d="M 115.16444852881244 85.47280134310134 l 29.921895651815845 -28.664499173776534 a62.43637716163892,62.43637716163892 0 0,0 0.7347993513400796,0.7803314474380234 l -30.409550836892183 28.146626266394012" fill="#46ff2c" stroke="none" /><path d="M 115.8921839302757 86.27271002978787 l 31.35026654778111 -27.079613565570284 a62.42637666363716,62.42637666363716 0 0,0 0.6935434788656737,0.8169924742135047 l -31.810504590153897 26.53745430890723" fill="#46ff2c" stroke="none" /><path d="M 116.35404254752997 86.82634096563983 l 39.017863235736954 -31.430028693090858 a71.10229890066111,71.10229890066111 0 0,0 0.7575224344112211,0.9571048495730569 l -39.55165210078973 30.755603899603123" fill="#3aff8f" stroke="none" /><path d="M 116.7966241395341 87.39550010848427 l 35.13163009058056 -26.363430174235955 a64.92336375294133,64.92336375294133 0 0,0 0.6612845899323239,0.8971595496259708 l -35.57901670009671 25.75646431534111" fill="#30ff38" stroke="none" /><path d="M 117.21940702142032 87.97951657250589 l 41.06462302315122 -28.66629610950256 a71.08053311089253,71.08053311089253 0 0,0 0.68985438860181,1.0065181695182255 l -41.55066714856836 27.95714320491429" fill="#3aff8e" stroke="none" /><path d="M 117.62189284568427 88.57770195909679 l 41.93314362189885 -27.180557073846494 a70.97170416204978,70.97170416204978 0 0,0 0.6538937690722774,1.028029613849825 l -42.39355508259702 26.456713785317998" fill="#39ff8d" stroke="none" /><line stroke="#e1ed5e" stroke-width="0.3" x1="172.87174338648825" x2="177.1583165268699" y1="56.24261187166439" y2="53.66864786411523" /><path d="M 173.72905801456457 55.72781907015455 a86.0,86.0 0 0,1 12.242430191666344,42.057860355516425" fill="none" id="id27" stroke="none" /><text fill="#e1ed5e" style="font-size:6.75px; font-family:Arial;" text-anchor="middle"><textPath startOffset="22.145653131862474" xlink:href="#id27">March</textPath></text><path d="M 118.18653347947321 89.5 l 38.246095825314775 -22.081393720197713 a65.16278744039542,65.16278744039542 0 0,0 0.5509874710294457,0.9735420667092515 l -38.6195166613656 21.421594883389346" fill="#31ff3b" stroke="none" /><path d="M 118.36410011445183 89.81374322990088 l 13.733807220714475 -7.617911354727707 a36.7050958030901,36.7050958030901 0 0,0 0.3009025207293515,0.5536267467847816 l -13.862555091059168 7.381029774468322" fill="#ff4106" stroke="none" /><path d="M 118.70294669586156 90.45014215332178 l 44.086315563146755 -22.510786853977883 a70.50089640318222,70.50089640318222 0 0,0 0.5411114571864405,1.0825853905678997 l -44.46624693354493 21.750669607246234" fill="#39ff86" stroke="none" /><path d="M 119.0197475246899 91.09779779509293 l 45.27564692414776 -21.191288861933188 a70.98954818789608,70.98954818789608 0 0,0 0.5071207171954927,1.1081502877901872 l -45.632752106198296 20.41094959192832" fill="#39ff8d" stroke="none" /><path d="M 119.31412917781788 91.75594674310238 l 40.37358993896884 -17.233084782888945 a64.89767619925051,64.89767619925051 0 0,0 0.4285538304036114,1.028373183424624 l -40.66346961390894 16.537479090023044" fill="#30ff37" stroke="none" /><path d="M 119.71291397450082 92.76114493625339 l 59.13874192350249 -21.71656519123983 a84.0,84.0 0 0,0 0.48543931982422706,1.3578601744763328 l -59.50282141337066 20.69817006038258" fill="#4dd2ff" stroke="none" /><path d="M 119.94978838288452 93.4421083053983 l 46.93128044800343 -15.427244056935912 a70.40187186414512,70.40187186414512 0 0,0 0.36754901103041293,1.1513420421065959 l -47.1891941748111 14.619332981137928" fill="#38ff85" stroke="none" /><path d="M 120.16314734710363 94.1308016681162 l 42.57008214425457 -12.391530489167685 a65.33691375854384,65.33691375854384 0 0,0 0.3042258071668288,1.0795900643260434 l -42.77652644349598 11.65893250093863" fill="#31ff3e" stroke="none" /><path d="M 120.43855184770803 95.1765574152323 l 48.19463504443489 -11.373802643299 a70.51854434083242,70.51854434083242 0 0,0 0.26793399510297705,1.1805666195635742 l -48.38277990109553 10.5448016897964" fill="#39ff87" stroke="none" /><path d="M 120.592083275326 95.88100663000786 l 48.34535122351292 -9.670424235230195 a70.30304341330411,70.30304341330411 0 0,0 0.226555600553656,1.1854346353810723 l -48.50423311634873 8.839087034815808" fill="#38ff84" stroke="none" /><path d="M 120.82617615685814 97.30363454192243 l 26.349827969131233 -3.411512772538185 a47.56975448512842,47.56975448512842 0 0,0 0.09789835933272657,0.8107388532108714 l -26.404508414723622 2.9586802424039007" fill="#ffef16" stroke="none" /><path d="M 120.86939407059847 97.66154086499901 l 24.027305644583528 -2.6923097136392222 a45.177674580744764,45.177674580744764 0 0,0 0.07974420523571707,0.7714528475442112 l -24.06998224230091 2.2794523438120797" fill="#ffcb12" stroke="none" /><path d="M 120.9064616781168 98.02013634271609 l 23.475162810895466 -2.223122325226553 a44.580193847188156,44.580193847188156 0 0,0 0.06561010910709768,0.762488920658238 l -23.509866542700305 1.819812357192653" fill="#ffc112" stroke="none" /><path d="M 120.93736805541906 98.37931529534042 l 41.65003757292436 -3.223976321391756 a62.77462929993401,62.77462929993401 0 0,0 0.07394265086722611,1.0751099154283463 l -41.69924418495665 2.508522981809075" fill="#42ff2d" stroke="none" /><path d="M 120.96210409425399 98.7389718711861 l 23.56915503796174 -1.4178618397087772 a44.61176404676236,44.61176404676236 0 0,0 0.03942492534506318,0.7648330192407761 l -23.590021552763375 1.0130570270912704" fill="#ffc212" stroke="none" /><path d="M 120.98066250479742 99.09900007780936 l 24.050600394679993 -1.032836264311956 a45.07276739582426,45.07276739582426 0 0,0 0.026561409735313495,0.7733064634035269 l -24.064786491412157 0.6198235363443092" fill="#ffc912" stroke="none" /><line stroke="#e1ed5e" stroke-width="0.3" x1="184.99686870605535" x2="189.99668451229388" y1="99.2704041080226" y2="99.22748670261217" /><path d="M 185.99683186730306 99.26182062694052 a86.0,86.0 0 0,1 -10.086455211305974,41.156179273409016" fill="none" id="id28" stroke="none" /><text fill="#e1ed5e" style="font-size:6.75px; font-family:Arial;" text-anchor="middle"><textPath startOffset="21.40746469413373" xlink:href="#id28">April</textPath></text><path d="M 120.99922638620191 100.18025310272382 l 49.0261255463272 0.4208303240189812 a70.02793167415744,70.02793167415744 0 0,0 -0.020636792627109612,1.2019897114408202 l -49.01167732210143 -1.2623669514288725" fill="#38ff80" stroke="none" /><path d="M 120.98066250479742 100.90099992219065 l 43.94619583052995 1.8872387378057487 a64.98670024028584,64.98670024028584 0 0,0 -0.057430945853422476,1.1141450067559096 l -43.90732329521995 -2.641355537938389" fill="#30ff39" stroke="none" /><path d="M 120.86939407059847 102.33845913500097 l 49.20082874092245 5.513055483528445 a70.50873993102675,70.50873993102675 0 0,0 -0.1451066971561392,1.2016916120703534 l -49.09893995750664 -6.356840772522207" fill="#39ff87" stroke="none" /><path d="M 120.77682067341334 103.0534771498775 l 48.94552667903902 7.193306890038792 a70.47128708556914,70.47128708556914 0 0,0 -0.18617342164776923,1.1953669187800606 l -48.81483176525298 -8.032461990750303" fill="#39ff86" stroke="none" /><path d="M 120.592083275326 104.11899336999214 l 43.22149349837672 8.645509188198123 a65.07768516328233,65.07768516328233 0 0,0 -0.22852273705674908,1.093564022978569 l -43.0667130504956 -9.3861896624621" fill="#30ff3a" stroke="none" /><path d="M 120.43855184770803 104.8234425847677 l 47.950161759893014 11.316107613813365 a70.26735536161152,70.26735536161152 0 0,0 -0.287134074701824,1.171605009526719 l -47.748840158674895 -12.137568447948185" fill="#38ff83" stroke="none" /><path d="M 120.26092885502905 105.52220625578681 l 47.88457800304253 13.051154667989355 a70.63129505359743,70.63129505359743 0 0,0 -0.32887783509838264,1.1670714146698542 l -47.653481675869564 -13.871234006562217" fill="#39ff88" stroke="none" /><path d="M 119.94978838288452 106.5578916946017 l 42.23995933676324 13.885113626193807 a65.4635867332329,65.4635867332329 0 0,0 -0.3600951725643009,1.064557392967362 l -41.99537874262658 -14.608172693635328" fill="#31ff40" stroke="none" /><path d="M 119.58574465831526 107.57618678355244 l 46.0159902970767 17.799973582969113 a70.3387314649967,70.3387314649967 0 0,0 -0.44528210295993415,1.1224017792575554 l -45.70364951915064 -18.58727637944023" fill="#38ff84" stroke="none" /><path d="M 119.31412917781788 108.2440532568976 l 49.00983423315871 20.919383929249072 a74.28775164651836,74.28775164651836 0 0,0 -0.510696872328363,1.1685743866627123 l -48.643503478813386 -21.757620385687627" fill="#3effb8" stroke="none" /><path d="M 119.0197475246899 108.90220220490707 l 39.48401410214919 18.480512264553063 a64.59491602445189,64.59491602445189 0 0,0 -0.4786813697020179,1.000259958157441 l -39.16095347448726 -19.155584724775608" fill="#30ff33" stroke="none" /><path d="M 118.70294669586154 109.54985784667822 l 24.546264083086527 12.533497339880087 a48.560980316480126,48.560980316480126 0 0,0 -0.3854630276868358,0.7391761807948172 l -24.327492986424744 -12.953019763779407" fill="#fffe18" stroke="none" /><line stroke="#e1ed5e" stroke-width="0.3" x1="174.33088141563837" x2="178.70328620479359" y1="141.23008692659167" y2="143.65538615756765" /><path d="M 175.20536237346943 141.71514677278685 a86.0,86.0 0 0,1 -30.301960400862466,31.631185727798858" fill="none" id="id29" stroke="none" /><text fill="#e1ed5e" style="font-size:6.75px; font-family:Arial;" text-anchor="middle"><textPath startOffset="22.145653131862474" xlink:href="#id29">May</textPath></text><path d="M 118.36410011445183 110.18625677009912 l 38.31497636240952 21.252671513190105 a64.81453480409854,64.81453480409854 0 0,0 -0.5480428020413589,0.9683391187600333 l -37.944500195346784 -21.90726740204926" fill="#30ff36" stroke="none" /><path d="M 118.00360718960297 110.81064883170644 l 25.631621757063215 15.391052408806056 a50.897567261363776,50.897567261363776 0 0,0 -0.4562167947559266,0.7451958482106303 l -25.363636997851884 -15.828785373141244" fill="#deff1b" stroke="none" /><path d="M 117.81537515405839 111.11811171558189 l 33.307926684146985 20.78660969451419 a60.26195515494079,60.26195515494079 0 0,0 -0.5552201043102403,0.8728982235838144 l -32.946188888210855 -21.355321592776676" fill="#61ff29" stroke="none" /><path d="M 117.21940702142032 112.02048342749411 l 41.28361462276255 28.819169253775986 a71.34760523399858,71.34760523399858 0 0,0 -0.7096874994965344,0.9982643446423319 l -40.78281202473606 -29.52361082512782" fill="#3aff92" stroke="none" /><path d="M 116.79662413953412 112.60449989151573 l 42.45538565406661 31.859312884867826 a74.07989815863846,74.07989815863846 0 0,0 -0.7720113918958348,1.010587693890273 l -41.90222228481647 -32.583421491998976" fill="#3effb6" stroke="none" /><path d="M 116.35404254752997 113.17365903436017 l 41.26127316961877 33.23716093316926 a73.98303058975858,73.98303058975858 0 0,0 -0.8051931887454876,0.9822047676883475 l -40.68463316163465 -33.9405679825561" fill="#3effb5" stroke="none" /><path d="M 115.6541949942343 113.99807769240083 l 39.530930291866824 35.34880162679995 a74.03048393321797,74.03048393321797 0 0,0 -0.8552364576184263,0.9400546822986062 l -38.918296133406514 -36.022193884656225" fill="#3effb5" stroke="none" /><path d="M 115.16444852881244 114.52719865689866 l 38.44853498392854 36.83282677355554 a74.24422006698123,74.24422006698123 0 0,0 -0.8895631289103052,0.9127701364963661 l -37.81058505386743 -37.487419602119644" fill="#3effb8" stroke="none" /><path d="M 114.65682725009322 115.03919595460226 l 41.105346743736824 42.177706942476135 a79.89489361437234,79.89489361437234 0 0,0 -0.9904209069849953,0.9488008246643154 l -40.37525335088652 -42.877119897446036" fill="#47fffd" stroke="none" /><path d="M 113.86319453409587 115.77377054828091 l 34.98605081415157 39.80770352573825 a73.99695285168261,73.99695285168261 0 0,0 -0.9613279606171189,0.8303721961538404 l -34.297543373771596 -40.40241985435681" fill="#3effb5" stroke="none" /><path d="M 113.31354834802062 116.24036423190432 l 33.608997861556176 40.9975126444871 a74.01283599556778,74.01283599556778 0 0,0 -0.9894784137894614,0.7970537686469833 l -32.90026867741146 -41.56841470692749" fill="#3effb5" stroke="none" /><path d="M 112.7482090630111 116.68781488649013 l 31.53916381648617 41.28577785654018 a72.95415582475317,72.95415582475317 0 0,0 -1.0017196561240849,0.7517091048806059 l -30.82579117145132 -41.8211059886848" fill="#3cffa7" stroke="none" /><path d="M 111.5731344415666 117.5232005979908 l 24.12119101950164 36.52255756911133 a64.7690423426003,64.7690423426003 0 0,0 -0.9330269473138428,0.6047767947370605 l -23.49067843993079 -36.931248205552286" fill="#30ff36" stroke="none" /><path d="M 111.27062007382361 117.71928675628689 l 16.64272539959543 26.165128611377778 a52.00958342152114,52.00958342152114 0 0,0 -0.7574474408097581,0.47270322363579453 l -16.191113829995956 -26.44696763185512" fill="#cfff1d" stroke="none" /><line stroke="#e1ed5e" stroke-width="0.3" x1="143.1302829299769" x2="145.66735839644613" y1="173.24464959558577" y2="177.55315839532614" /><path d="M 143.63769802327073 174.10635135553383 a86.0,86.0 0 0,1 -40.68552437913181,11.842963189579606" fill="none" id="id30" stroke="none" /><text fill="#e1ed5e" style="font-size:6.75px; font-family:Arial;" text-anchor="middle"><textPath startOffset="21.407464694133747" xlink:href="#id30">June</textPath></text><path d="M 110.65571695917076 118.09573695890943 l 29.474524217661696 50.05418586806368 a79.08759851097471,79.08759851097471 0 0,0 -1.1757973311409065,0.6788469056466485 l -28.61093441866039 -50.5527796709865" fill="#46fff4" stroke="none" /><path d="M 109.71004243097381 118.62028667847754 l 24.89095229018074 47.73168301150162 a74.8318963907322,74.8318963907322 0 0,0 -1.144118327553035,0.5841949702144157 l -24.06790674091412 -48.15193593338888" fill="#3fffbf" stroke="none" /><path d="M 109.06512990194946 118.94263497670748 l 22.90722583059073 47.86729169149244 a74.06617198491054,74.06617198491054 0 0,0 -1.151592432067017,0.5390034055180477 l -22.082144684652206 -48.25347132858102" fill="#3effb6" stroke="none" /><path d="M 108.4095320186766 119.2426549942271 l 6.70134091961516 15.333979468591663 a37.73436274448774,37.73436274448774 0 0,0 -0.5957805308032267,0.25430328129965546 l -6.437125313641503 -15.446757399550723" fill="#ff5207" stroke="none" /><path d="M 108.07796709384702 119.3841803445677 l 14.577572170651994 34.9808664307516 a58.89678913360143,58.89678913360143 0 0,0 -0.9365866657796913,0.3809016433764474 l -13.974931043681861 -35.225955330707336" fill="#72ff27" stroke="none" /><path d="M 107.407793817531 119.65005319985036 l 17.94795159120937 47.60907394060681 a71.87978859824952,71.87978859824952 0 0,0 -1.1583285827836014,0.4253543001208105 l -17.128033856771644 -47.91015908973635" fill="#3bff99" stroke="none" /><path d="M 106.72888874123015 119.89276391827305 l 17.13426264363944 50.654402946970436 a74.47383934462968,74.47383934462968 0 0,0 -1.214552219791011,0.3992474387177361 l -16.26218768620069 -50.9410713070902" fill="#3fffbb" stroke="none" /><path d="M 106.0420521117495 120.11202640906438 l 11.888371854694181 39.572523420880415 a62.31970468495163,62.31970468495163 0 0,0 -1.0272067527633848,0.29900491505779864 l -11.207305089549191 -39.770772030240735" fill="#47ff2c" stroke="none" /><path d="M 104.9986988182912 120.39639698878246 l 12.75259110695726 52.034923548771474 a74.57482476562791,74.57482476562791 0 0,0 -1.2459956262257994,0.2940515751190945 l -11.857463326991581 -52.246171267536795" fill="#3fffbc" stroke="none" /><path d="M 104.29559338865022 120.5559693870025 l 10.941794243753737 52.36044643046566 a74.49148728227985,74.49148728227985 0 0,0 -1.2539525024910392,0.25082561948622806 l -10.04134525573174 -52.54056144661475" fill="#3fffbb" stroke="none" /><path d="M 103.58742460773223 120.69131181640829 l 10.05322808791077 57.9843480696674 a79.8494011528741,79.8494011528741 0 0,0 -1.352582302753203,0.22256690320010125 l -9.056368282104494 -58.14838097136317" fill="#47fffd" stroke="none" /><path d="M 102.51750503828377 120.84855314841334 l 6.456511377613131 53.4691762528779 a74.857583944423,74.857583944423 0 0,0 -1.2770849914376756,0.14310003703497381 l -5.537690484574656 -53.572132050419846" fill="#3fffc0" stroke="none" /><path d="M 101.80034050326958 120.92268563240118 l 3.763369736234464 43.73606090999325 a64.89767619925051,64.89767619925051 0 0,0 -1.1107731901451363,0.08598086993786233 l -3.012027551314092 -43.794219546926165" fill="#30ff37" stroke="none" /><path d="M 101.08105385017728 120.97215588758144 l 3.029998609138619 58.78116354665335 a79.85920556267975,79.85920556267975 0 0,0 -1.3696775534552466,0.058819847505154836 l -2.0204952950825428 -58.824515962584336" fill="#47fffd" stroke="none" /><line stroke="#e1ed5e" stroke-width="0.3" x1="101.45913802915013" x2="101.54496967792366" y1="184.9874750549273" y2="189.98673829345242" /><path d="M 101.47630435890484 185.9873277026323 a86.0,86.0 0 0,1 -42.54439059252881,-10.42667462771756" fill="none" id="id31" stroke="none" /><text fill="#e1ed5e" style="font-size:6.75px; font-family:Arial;" text-anchor="middle"><textPath startOffset="22.145653131862474" xlink:href="#id31">July</textPath></text><path d="M 100.0 121.0 l 6.589840420217114e-15 53.81013060096362 a74.81013060096362,74.81013060096362 0 0,0 -1.2842153708888568,-0.011023444431288653 l 0.9237224460399981 -53.802201554726764" fill="#3fffbf" stroke="none" /><path d="M 99.27912038922189 120.98762331915562 l -1.8226507694915546 53.064488467315776 a74.09578130252362,74.09578130252362 0 0,0 -1.2708281749201447,-0.05457482986816921 l 2.733304705012538 -53.025381069021776" fill="#3effb6" stroke="none" /><path d="M 98.55909050195518 120.95050786540614 l -2.26957911390879 32.999182212086815 a54.077137361337634,54.077137361337634 0 0,0 -0.9255714210220581,-0.07164508170988693 l 2.8357195297060844 -32.95535936338187" fill="#b2ff20" stroke="none" /><path d="M 97.84075906011543 120.88869738790638 l -2.566116494663368 24.82484929264249 a45.95712516029432,45.95712516029432 0 0,0 -0.7840375243129556,-0.08785303994504622 l 2.991889920577123 -24.777140492190473" fill="#ffd614" stroke="none" /><path d="M 96.41257539226777 120.69131181640829 l -2.044498389353302 11.79212340548546 a32.96804696156671,32.96804696156671 0 0,0 -0.5567914838059675,-0.10146595604964471 l 2.246624606710327 -11.755289275504449" fill="#ff0000" stroke="none" /><path d="M 96.05791012581884 120.62667999033965 l -6.375571239067768 33.35968278277269 a54.963456007768826,54.963456007768826 0 0,0 -0.9252273745767075,-0.18507138741921927 l 6.947295099175434 -33.245321998690606" fill="#a6ff21" stroke="none" /><path d="M 95.00130118170881 120.39639698878247 l -11.40278186224386 46.52724120680675 a68.90415022223328,68.90415022223328 0 0,0 -1.1464164458310313,-0.2914145775036124 l 12.19980360130027 -46.32464139746787" fill="#36ff71" stroke="none" /><path d="M 94.30408787586889 120.21278271476187 l -14.482963371441027 51.394927680252586 a74.39658059536112,74.39658059536112 0 0,0 -1.2262681660061472,-0.3569487913006531 l 15.36309154982878 -51.13873519464941" fill="#3fffba" stroke="none" /><path d="M 93.61358852112213 120.00534299687104 l -12.596586593132141 39.458628091667094 a62.42049401775377,62.42049401775377 0 0,0 -1.0179809478988433,-0.3346305572452069 l 13.272090278678728 -39.236576613019864" fill="#46ff2c" stroke="none" /><path d="M 92.59220618246901 119.65005319985036 l -18.724113999793495 49.66793694301766 a74.08009424683458,74.08009424683458 0 0,0 -1.1860848801371136,-0.4588031116422763 l 19.57397114242414 -49.33919394323734" fill="#3effb6" stroke="none" /><path d="M 91.92203290615298 119.3841803445677 l -20.399806100822403 48.95210835332013 a74.03264090337521,74.03264090337521 0 0,0 -1.1688870007648602,-0.49892835430903437 l 21.237128176757693 -48.59470534935169" fill="#3effb5" stroke="none" /><path d="M 91.26138138417905 119.09545874513695 l -17.243515820785003 37.68019402755258 a62.438338043600055,62.438338043600055 0 0,0 -0.9708010503972636,-0.45438391020458646 l 17.88780558505376 -37.37863388577747" fill="#46ff2c" stroke="none" /><path d="M 90.28995756902619 118.62028667847754 l -24.53689436299215 47.0527302518299 a74.06617198491054,74.06617198491054 0 0,0 -1.122318299879741,-0.5975712798563262 l 25.341001478658452 -46.624588504250994" fill="#3effb6" stroke="none" /><path d="M 89.97174638481275 118.45085714620012 l -8.160464692200717 15.01433590135563 a38.088694114864104,38.088694114864104 0 0,0 -0.5717943897740647,-0.3171647092773755 l 8.417003270130884 -14.872038276645105" fill="#ff5808" stroke="none" /><line stroke="#e1ed5e" stroke-width="0.3" x1="58.13341422392154" x2="55.67067388415222" y1="173.97424548756322" y2="178.32567169271397" /><path d="M 57.64086615596768 174.84453072859336 a86.0,86.0 0 0,1 -31.369924170532247,-30.572349798747897" fill="none" id="id32" stroke="none" /><text fill="#e1ed5e" style="font-size:6.75px; font-family:Arial;" text-anchor="middle"><textPath startOffset="22.145653131862474" xlink:href="#id32">August</textPath></text><path d="M 89.03521579738668 117.91015095944536 l -21.621870249169195 35.31770010538503 a62.410689607948115,62.410689607948115 0 0,0 -0.9089251251943571,-0.5672365019328818 l 22.22495950315327 -34.9413278066106" fill="#46ff2c" stroke="none" /><path d="M 87.54013794807813 116.9041958592261 l -23.31040992832115 31.62504796161931 a60.287642708631616,60.287642708631616 0 0,0 -0.8277981705071218,-0.6211951796787252 l 23.84986108773904 -31.220233754676567" fill="#61ff29" stroke="none" /><path d="M 86.96720088162412 116.46651593811092 l -25.70473438745621 32.47709219112879 a62.418533135792636,62.418533135792636 0 0,0 -0.8344740520680164,-0.6721932270272402 l 26.258459209879486 -32.03105067030814" fill="#46ff2c" stroke="none" /><path d="M 86.13680546590413 115.77377054828092 l -33.87189154675918 38.53999480284153 a72.3092217477372,72.3092217477372 0 0,0 -0.9253341317524324,-0.8274394865064364 l 34.52849070533499 -37.952859786451704" fill="#3bff9f" stroke="none" /><path d="M 85.60350026404147 115.28858382429668 l -36.9123933902446 39.19968262095033 a74.84366168249898,74.84366168249898 0 0,0 -0.9278030664067799,-0.8888143498632439 l 37.5798689425167 -38.560256140781505" fill="#3fffc0" stroke="none" /><path d="M 85.08716467003676 114.78537596483092 l -28.70884650785467 28.463473225805462 a61.42730730444094,61.42730730444094 0 0,0 -0.7359962517886968,-0.7551969920661131 l 29.193229560794176 -27.96645354167161" fill="#52ff2b" stroke="none" /><path d="M 84.3458050057657 113.99807769240083 l -35.87781054769123 32.08215942530393 a69.12984773595946,69.12984773595946 0 0,0 -0.7834351862564444,-0.891405428746291 l 36.42325679790628 -31.461541718746336" fill="#37ff74" stroke="none" /><path d="M 83.8745106332314 113.45245675266167 l -25.30502873616269 21.110354976241297 a53.95438615057084,53.95438615057084 0 0,0 -0.5872117414638182,-0.7163028452922601 l 25.663687296865138 -20.672849849250543" fill="#b4ff20" stroke="none" /><path d="M 81.99639281039703 110.81064883170644 l -35.583354850620154 21.36678219497056 a62.50559629486684,62.50559629486684 0 0,0 -0.5444722298260252,-0.924632879243564 l 35.94490079057595 -20.752798147433438" fill="#45ff2d" stroke="none" /><line stroke="#e1ed5e" stroke-width="0.3" x1="26.387840678322732" x2="22.057713659400534" y1="142.50000000000003" y2="145.00000000000006" /><path d="M 25.521815274538284 143.00000000000003 a86.0,86.0 0 0,1 -11.493303480769212,-40.785679425670985" fill="none" id="id33" stroke="none" /><text fill="#e1ed5e" style="font-size:6.75px; font-family:Arial;" text-anchor="middle"><textPath startOffset="21.40746469413373" xlink:href="#id33">September</textPath></text><line stroke="#e1ed5e" stroke-width="0.3" x1="15.003131293944662" x2="10.003315487706104" y1="100.72959589197737" y2="100.7725132973878" /><path d="M 14.003168132696942 100.73817937305945 a86.0,86.0 0 0,1 10.791469493833604,-42.45332614584628" fill="none" id="id34" stroke="none" /><text fill="#e1ed5e" style="font-size:6.75px; font-family:Arial;" text-anchor="middle"><textPath startOffset="22.145653131862435" xlink:href="#id34">October</textPath></text><line stroke="#e1ed5e" stroke-width="0.3" x1="26.387840678322718" x2="22.05771365940052" y1="57.49999999999999" y2="54.99999999999999" /><path d="M 25.521815274538284 56.99999999999999 a86.0,86.0 0 0,1 29.574782752854787,-30.34633250058573" fill="none" id="id35" stroke="none" /><text fill="#e1ed5e" style="font-size:6.75px; font-family:Arial;" text-anchor="middle"><textPath startOffset="21.40746469413373" xlink:href="#id35">November</textPath></text><line stroke="#e1ed5e" stroke-width="0.3" x1="56.869717070023135" x2="54.33264160355391" y1="26.7553504044142" y2="22.446841604673864" /><path d="M 56.362301976729285 25.89364864446614 a86.0,86.0 0 0,1 42.16139366436587,-11.88097634709845" fill="none" id="id36" stroke="none" /><text fill="#e1ed5e" style="font-size:6.75px; font-family:Arial;" text-anchor="middle"><textPath startOffset="22.145653131862474" xlink:href="#id36">December</textPath></text></svg>