<?xml version="1.0" encoding="utf-8" ?>
<svg baseProfile="full" height="200mm" version="1.1" viewBox="0,0,200,200" width="200mm" xmlns="http://www.w3.org/2000/svg" xmlns:ev="http://www.w3.org/2001/xml-events" xmlns:xlink="http://www.w3.org/1999/xlink"><defs /><rect fill="#1a1a1a" height="200" width="200" x="0" y="0" /><text alignment-baseline="middle" fill="#e1ed5e" style="dominant-baseline: central; font-size:9.0px; font-family:Arial;" text-anchor="middle" x="100.0" y="100.0">2022</text><line stroke="#e1ed5e" stroke-width="0.3" x1="100.0" x2="100.0" y1="15.0" y2="10.0" /><path d="M 100.0 14.0 a86.0,86.0 0 0,1 42.46469731375804,11.215312516191453" fill="none" id="id1" stroke="none" /><text fill="#e1ed5e" style="font-size:6.75px; font-family:Arial;" text-anchor="middle"><textPath startOffset="22.20632615414155" xlink:href="#id1">January</textPath></text><line stroke="#e1ed5e" stroke-width="0.3" x1="143.23703022742887" x2="145.7803849466894" y1="26.81831364943548" y2="22.513508569990506" /><path d="M 143.74570117128098 25.957352633546492 a86.0,86.0 0 0,1 28.547481713284135,27.462654790039103" fill="none" id="id2" stroke="none" /><text fill="#e1ed5e" style="font-size:6.75px; font-family:Arial;" text-anchor="middle"><textPath startOffset="19.985693538727396" xlink:href="#id2">February</textPath></text><line stroke="#e1ed5e" stroke-width="0.3" x1="172.23445277983987" x2="176.4835382374775" y1="55.19839476539836" y2="52.563006222186495" /><path d="M 173.08426987136738 54.67131705675599 a86.0,86.0 0 0,1 12.851231095245387,41.99856678651699" fill="none" id="id3" stroke="none" /><text fill="#e1ed5e" style="font-size:6.75px; font-family:Arial;" text-anchor="middle"><textPath startOffset="22.20632615414155" xlink:href="#id3">March</textPath></text><line stroke="#e1ed5e" stroke-width="0.3" x1="184.98032266829074" x2="189.97916517819016" y1="98.17113171792111" y2="98.06355123074" /><path d="M 185.9800911702706 98.14961562048488 a86.0,86.0 0 0,1 -9.607161424134198,41.387399972396054" fill="none" id="id4" stroke="none" /><text fill="#e1ed5e" style="font-size:6.75px; font-family:Arial;" text-anchor="middle"><textPath startOffset="21.466115282336823" xlink:href="#id4">April</textPath></text><line stroke="#e1ed5e" stroke-width="0.3" x1="174.80103733775053" x2="179.2010983576182" y1="140.37084112569926" y2="142.7455964860345" /><path d="M 175.68104954172406 140.8457921977663 a86.0,86.0 0 0,1 -30.038265399797805,32.042727171017184" fill="none" id="id5" stroke="none" /><text fill="#e1ed5e" style="font-size:6.75px; font-family:Arial;" text-anchor="middle"><textPath startOffset="22.206326154141568" xlink:href="#id5">May</textPath></text><line stroke="#e1ed5e" stroke-width="0.3" x1="143.8653032363475" x2="146.44561519142675" y1="172.8068346515853" y2="177.08958963109032" /><path d="M 144.38136562736335 173.6633856474863 a86.0,86.0 0 0,1 -40.68145358897372,12.25698825130547" fill="none" id="id6" stroke="none" /><text fill="#e1ed5e" style="font-size:6.75px; font-family:Arial;" text-anchor="middle"><textPath startOffset="21.466115282336833" xlink:href="#id6">June</textPath></text><line stroke="#e1ed5e" stroke-width="0.3" x1="102.19456741930631" x2="102.32365962044197" y1="184.97166512339345" y2="189.96999836594603" /><path d="M 102.22038585953345 185.97133177190398 a86.0,86.0 0 0,1 -42.740103519485714,-10.115201625700543" fill="none" id="id7" stroke="none" /><text fill="#e1ed5e" style="font-size:6.75px; font-family:Arial;" text-anchor="middle"><textPath startOffset="22.20632615414155" xlink:href="#id7">July</textPath></text><line stroke="#e1ed5e" stroke-width="0.3" x1="58.666819895761336" x2="56.23545636021788" y1="174.27360380694188" y2="178.64263932499728" /><path d="M 58.180547188652646 175.14741091055294 a86.0,86.0 0 0,1 -31.652253787137756,-30.449443065178592" fill="none" id="id8" stroke="none" /><text fill="#e1ed5e" style="font-size:6.75px; font-family:Arial;" text-anchor="middle"><textPath startOffset="22.20632615414155" xlink:href="#id8">August</textPath></text><path d="M 85.18274418774928 114.88116024355367 l -17.693424730967678 17.76973361431023 a46.076297801588765,46.076297801588765 0 0,0 -0.5572146566403138,-0.5644555053160244 l 17.996680012663525 -17.462537615013538" fill="#ffd213" stroke="none" /><path d="M 84.9287848128048 114.62390073753433 l -8.969105245669365 8.702901736059491 a33.497413633844445,33.497413633844445 0 0,0 -0.3979707260663513,-0.4172707152145734 l 9.117582523114674 -8.547223904262417" fill="#ff0000" stroke="none" /><path d="M 84.67929136418377 114.36230785411682 l -21.13546968439435 19.81332126759375 a49.97025678921116,49.97025678921116 0 0,0 -0.5828758997091945,-0.6325966697460191 l 21.473391992099273 -19.44657334304639" fill="#f1ff19" stroke="none" /><path d="M 84.43433777217949 114.09645910891817 l -46.69698668346152 42.28937732675451 a84.0,84.0 0 0,0 -0.9613646014066468,-1.0801033210365434 l 47.4180101345165 -41.4792998359771" fill="#4dd2ff" stroke="none" /><path d="M 84.19399662182784 113.82643327865904 l -36.42543139493208 31.863449904351565 a69.39515980048031,69.39515980048031 0 0,0 -0.7787375812626651,-0.9058477385074678 l 36.968511485765525 -31.231725066682568" fill="#37ff75" stroke="none" /><path d="M 83.95833913139862 113.55231037782056 l -33.317002552465084 28.146858554616312 a64.61500092370218,64.61500092370218 0 0,0 -0.7104696276269369,-0.8558064346910328 l 33.796568179985556 -27.56919086281152" fill="#2fff30" stroke="none" /><path d="M 83.72743513129214 113.27417163493432 l -19.511746218427547 15.916499352769486 a46.18021429891003,46.18021429891003 0 0,0 -0.49716758430721647,-0.6202930044339897 l 19.782831714789623 -15.578278514757237" fill="#ffd413" stroke="none" /><path d="M 83.50135304334701 112.99209946851258 l -30.376695177231024 23.920570353687616 a59.66441899131719,59.66441899131719 0 0,0 -0.6284458445487701,-0.8123509694316549 l 30.78394783899786 -23.39414139014271" fill="#6cff28" stroke="none" /><path d="M 83.28015986056508 112.70617746262583 l -33.14955083146338 25.191872180492325 a62.63559948272677,62.63559948272677 0 0,0 -0.6449639377113725,-0.8640345930647331 l 33.578276035869834 -24.617524707918285" fill="#46ff2c" stroke="none" /><path d="M 83.06392112726016 112.41649034213515 l -40.17016569872294 29.45029237216069 a70.80925549602807,70.80925549602807 0 0,0 -0.712206935599986,-0.9891931421694731 l 40.671152426698534 -28.754465624540078" fill="#39ff89" stroke="none" /><path d="M 82.85270091963577 112.12312394758628 l -43.48280081777565 30.7422983311552 a74.25263255126546,74.25263255126546 0 0,0 -0.7288747769019653,-1.0499984781769207 l 44.00553650183974 -29.989258590791266" fill="#3effb7" stroke="none" /><path d="M 82.6465618267979 111.8261652097733 l -44.06118145019276 30.027179972464687 a74.31997044152965,74.31997044152965 0 0,0 -0.7113372983197033,-1.0633527454759133 l 44.571521853923194 -29.26429031278295" fill="#3effb8" stroke="none" /><path d="M 82.44556493220864 111.52570212397912 l -34.8091229795599 22.854599484974557 a62.64141880657676,62.64141880657676 0 0,0 -0.5840421501661618,-0.9064463869330022 l 35.19736999310311 -22.252031498120107" fill="#46ff2c" stroke="none" /><path d="M 82.24976979558568 111.22182372390057 l -25.35840863068687 16.03176906975761 a51.0011084426381,51.0011084426381 0 0,0 -0.4627387892596051,-0.7460822675245915 l 25.630612059614432 -15.592890470867752" fill="#e2ff1b" stroke="none" /><path d="M 82.05923443525364 110.91462005526583 l -40.1667940875497 24.43626470239208 a68.0159800480325,68.0159800480325 0 0,0 -0.5998981077630053,-1.0054637346854882 l 40.58147307101093 -23.74123887382048" fill="#35ff62" stroke="none" /><line stroke="#e1ed5e" stroke-width="0.3" x1="26.63291911575756" x2="22.317208475507996" y1="142.92168965132927" y2="145.44649492493687" /><path d="M 25.769776987707644 143.4266507060508 a86.0,86.0 0 0,1 -11.730757126820373,-40.83630448921669" fill="none" id="id9" stroke="none" /><text fill="#e1ed5e" style="font-size:6.75px; font-family:Arial;" text-anchor="middle"><textPath startOffset="21.46611528233685" xlink:href="#id9">September</textPath></text><path d="M 81.87401531095188 110.60418214915194 l -29.631543284721012 17.33523931207527 a55.32985405505265,55.32985405505265 0 0,0 -0.4738554192848341,-0.8262068649152757 l 29.925550700158226 -16.82261260130169" fill="#a5ff21" stroke="none" /><path d="M 81.69416730710424 110.29060199501025 l -47.259107963678844 26.566651124380382 a75.21448365047107,75.21448365047107 0 0,0 -0.6247228714078746,-1.1340534746297193 l 47.709407244538234 -25.74922713135284" fill="#40ffc3" stroke="none" /><path d="M 81.51974371655577 109.97397251340807 l -33.63230088394995 18.151677089007773 a59.21799371882504,59.21799371882504 0 0,0 -0.4764157860357115,-0.9011991252028846 l 33.93976917821055 -17.570062948718764" fill="#71ff27" stroke="none" /><line stroke="#e1ed5e" stroke-width="0.3" x1="15.007084014347285" x2="10.007500721073583" y1="101.09737516637583" y2="101.16192664675087" /><path d="M 14.007167355692545 101.11028546245083 a86.0,86.0 0 0,1 10.666146001902534,-42.60595125391555" fill="none" id="id10" stroke="none" /><text fill="#e1ed5e" style="font-size:6.75px; font-family:Arial;" text-anchor="middle"><textPath startOffset="22.20632615414155" xlink:href="#id10">October</textPath></text><line stroke="#e1ed5e" stroke-width="0.3" x1="26.266209847984243" x2="21.928928074336255" y1="57.711370442889674" y2="55.22380399835377" /><path d="M 25.398753493254645 57.213857153982495 a86.0,86.0 0 0,1 29.58750427330803,-30.492523968695096" fill="none" id="id11" stroke="none" /><text fill="#e1ed5e" style="font-size:6.75px; font-family:Arial;" text-anchor="middle"><textPath startOffset="21.46611528233685" xlink:href="#id11">November</textPath></text><line stroke="#e1ed5e" stroke-width="0.3" x1="56.762969772571076" x2="54.21961505331055" y1="26.818313649435495" y2="22.513508569990535" /><path d="M 56.25429882871897 25.957352633546506 a86.0,86.0 0 0,1 42.265352541879196,-11.944610805530505" fill="none" id="id12" stroke="none" /><text fill="#e1ed5e" style="font-size:6.75px; font-family:Arial;" text-anchor="middle"><textPath startOffset="22.20632615414155" xlink:href="#id12">December</textPath></text></svg>