<?xml version="1.0" encoding="utf-8" ?>
<svg baseProfile="full" height="200mm" version="1.1" viewBox="0,0,200,200" width="200mm" xmlns="http://www.w3.org/2000/svg" xmlns:ev="http://www.w3.org/2001/xml-events" xmlns:xlink="http://www.w3.org/1999/xlink"><defs /><rect fill="#1a1a1a" height="200" width="200" x="0" y="0" /><text alignment-baseline="middle" fill="#e1ed5e" style="dominant-baseline: central; font-size:9.0px; font-family:Arial;" text-anchor="middle" x="100.0" y="100.0">2023</text><line stroke="#e1ed5e" stroke-width="0.3" x1="100.0" x2="100.0" y1="15.0" y2="10.0" /><path d="M 100.0 14.0 a86.0,86.0 0 0,1 42.46469731375804,11.215312516191453" fill="none" id="id13" stroke="none" /><text fill="#e1ed5e" style="font-size:6.75px; font-family:Arial;" text-anchor="middle"><textPath startOffset="22.20632615414155" xlink:href="#id13">January</textPath></text><path d="M 100.72285384407766 79.0124445844662 l 0.2997102737974338 -8.70187802342607 a29.70703780759021,29.70703780759021 0 0,0 0.5109032879413304,0.022000570292368023 l -0.44945439412809574 8.695429726609508" fill="#ff2b04" stroke="none" /><path d="M 101.08401301168833 79.027996857942 l 0.45441601477130683 -8.791420385943992 a29.803156610947703,29.803156610947703 0 0,0 0.5121004747431688,0.030891299122243247 l -0.6056785383540875 8.782295817441446" fill="#ff2d04" stroke="none" /><path d="M 101.44485096284872 79.0497635885617 l 0.8360938626468208 -12.123301665707903 a33.15209842886864,33.15209842886864 0 0,0 0.5689686436661702,0.044162917211896066 l -1.0446526956753321 12.107113486307542" fill="#ff5f08" stroke="none" /><path d="M 101.80526077348638 79.07773832637324 l 1.2990003270011015 -15.054902402358595 a36.11084008895904,36.11084008895904 0 0,0 0.6188278089370784,0.058765157006649936 l -1.557953263028424 15.030311700836767" fill="#ff8b0c" stroke="none" /><path d="M 102.88285421437855 79.19881850522331 l 0.9585454069431317 -6.916366731748438 a27.98247363512447,27.98247363512447 0 0,0 0.47654288458370586,0.07023003368530102 l -1.0774572719554933 6.898842213902168" fill="#ff1001" stroke="none" /><path d="M 103.2404852339499 79.25152402106235 l 1.869596549246612 -11.970824210503942 a33.11594088528589,33.11594088528589 0 0,0 0.5624518535720475,0.09280937511283566 l -2.0753776089575346 11.936868572451482" fill="#ff5f08" stroke="none" /><path d="M 103.95276090670814 79.375362276772 l 3.1455344774782446 -16.412707617557533 a37.71141401822226,37.71141401822226 0 0,0 0.6364853273595379,0.12767296892524338 l -3.427586214304908 16.35613069255508" fill="#ffa20f" stroke="none" /><path d="M 105.01212808612495 79.60689891045804 l 2.7693814544599435 -11.267923521876337 a32.603257048568764,32.603257048568764 0 0,0 0.5438395782871878,0.1386368175987348 l -2.9629299214321563 11.218583708108735" fill="#ff5708" stroke="none" /><path d="M 105.36241919743992 79.69619591428918 l 3.011249015427311 -11.401534981023957 a32.79248152665184,32.79248152665184 0 0,0 0.5445146440921889,0.1488364213902405 l -3.2070615487432104 11.348012018807424" fill="#ff5a08" stroke="none" /><path d="M 105.71112130821622 79.79150937346287 l 5.036349396134915 -17.82084709308107 a39.51883922806515,39.51883922806515 0 0,0 0.6530201807787511,0.19063449776171873 l -5.342359794637092 17.731514266400648" fill="#ffbb11" stroke="none" /><path d="M 106.40334571778207 80.00007090966166 l 3.451899016612242 -10.781509948390875 a32.32062558289691,32.32062558289691 0 0,0 0.5283917123085565,0.17420243996855972 l -3.6369735511632157 10.720493784163079" fill="#ff5307" stroke="none" /><path d="M 106.74666289553966 80.11325718540242 l 3.65609208078326 -10.776848353441833 a32.38013487337685,32.38013487337685 0 0,0 0.5262820353877091,0.18360946832812225 l -3.841056120234243 10.712318031941503" fill="#ff5407" stroke="none" /><path d="M 107.08798089147638 80.2323363322302 l 4.4500356679515916 -12.410700556406754 a34.18439629815625,34.18439629815625 0 0,0 0.5521881622442434,0.20337556026215298 l -4.663006155968412 12.332261728338276" fill="#ff6f0a" stroke="none" /><path d="M 107.76421540070413 80.48803036053334 l 5.997200513290855 -15.071348268688263 a37.22072602051797,37.22072602051797 0 0,0 0.5932560659380283,0.24200404506882453 l -6.255740448817271 14.96588333743586" fill="#ff9b0e" stroke="none" /><path d="M 108.09893153111575 80.62456947434976 l 6.456717593276194 -15.446689809838643 a37.741846617404406,37.741846617404406 0 0,0 0.5972489829500064,0.2557108453466783 l -6.721650334016515 15.333259436529175" fill="#ffa20f" stroke="none" /><path d="M 108.76106565485865 80.91482961587045 l 7.704005591845432 -16.78246290496828 a39.46626013343855,39.46626013343855 0 0,0 0.6149628682942443,0.288733312415952 l -7.991746671439274 16.647364609912326" fill="#ffbb11" stroke="none" /><path d="M 109.08828744355905 81.06846463323043 l 5.47846583287933 -11.412025677543678 a33.65890666475357,33.65890666475357 0 0,0 0.520156301606029,0.25523843818406283 l -5.674093401495791 11.316032079224783" fill="#ff6709" stroke="none" /><path d="M 109.41281617654863 81.2277094730956 l 5.247177382641206 -10.464619347241928 a32.706456704211206,32.706456704211206 0 0,0 0.5010933063196377,0.25667945406652787 l -5.426531176549599 10.3727473678629" fill="#ff5908" stroke="none" /><path d="M 110.05341064243156 81.56283822128135 l 10.992180948205924 -20.158792438821973 a43.96094411363799,43.96094411363799 0 0,0 0.6612477746261314,0.3679836706616668 l -11.33755281190409 19.966593370600126" fill="#fff817" stroke="none" /><line stroke="#e1ed5e" stroke-width="0.3" x1="143.23703022742887" x2="145.7803849466894" y1="26.81831364943548" y2="22.513508569990506" /><path d="M 143.74570117128098 25.957352633546492 a86.0,86.0 0 0,1 28.547481713284135,27.462654790039103" fill="none" id="id14" stroke="none" /><text fill="#e1ed5e" style="font-size:6.75px; font-family:Arial;" text-anchor="middle"><textPath startOffset="19.985693538727396" xlink:href="#id14">February</textPath></text><path d="M 110.68208982089419 81.91981866633111 l 9.374167968729754 -15.86643246487107 a39.42874668197145,39.42874668197145 0 0,0 0.5813636025825628,0.35026506563424636 l -9.645893637529953 15.702720789778208" fill="#ffba11" stroke="none" /><path d="M 110.99172775467656 82.1063720568725 l 6.1514720597931225 -10.014090122788096 a32.752557572279215,32.752557572279215 0 0,0 0.47784554052243594,0.29922683363751523 l -6.322936752687822 9.906718947827637" fill="#ff5908" stroke="none" /><path d="M 111.2981086023043 82.29822771554956 l 7.769263245976563 -12.172809948930539 a35.44087093765693,35.44087093765693 0 0,0 0.5114167870968404,0.3326397043112142 l -7.977647058857684 12.037271320459796" fill="#ff810b" stroke="none" /><path d="M 111.60114157652 82.49532879139004 l 17.577073619545263 -26.521605006734745 a52.817433101370256,52.817433101370256 0 0,0 0.7535169052698597,0.5087779780651958 l -18.030995219221666 26.215115116370878" fill="#97ff23" stroke="none" /><path d="M 112.19680574252982 82.90503203632743 l 8.343336138574939 -11.693968651295958 a35.36524140899634,35.36524140899634 0 0,0 0.4925109756352341,0.35783016930840755 l -8.543392430563962 11.548619247170874" fill="#ff800b" stroke="none" /><path d="M 112.77801427241765 83.33499621200491 l 10.86713323713143 -14.172845068138882 a38.85956668340627,38.85956668340627 0 0,0 0.5273195916848579,0.41158130551479805 l -11.109485383975718 13.98368537340086" fill="#ffb210" stroke="none" /><path d="M 113.06298171725822 83.55741782278167 l 11.489688532170835 -14.462253103460228 a39.470779826386405,39.470779826386405 0 0,0 0.5283381935812601,0.42721274241750595 l -11.736930124316585 14.262334263778593" fill="#ffbb11" stroke="none" /><path d="M 113.34407831869373 83.78471172551755 l 8.957448311381981 -10.884798717747138 a35.0966209914628,35.0966209914628 0 0,0 0.46317923742792116,0.3878992910241095 l -9.14348508576902 10.728998269329209" fill="#ff7c0b" stroke="none" /><path d="M 113.6212207817346 84.01681056812373 l 20.676620311408467 -24.26202060327642 a52.877394361144994,52.877394361144994 0 0,0 0.6876735386394914,0.5963437162605911 l -21.091187648694724 23.902511893596156" fill="#96ff23" stroke="none" /><path d="M 114.16331599549186 84.49514656593476 l 11.218780991306774 -12.28141453840718 a37.63412726881412,37.63412726881412 0 0,0 0.4745342952877787,0.44102791085421283 l -11.428523170389399 12.086482041478327" fill="#ffa10e" stroke="none" /><path d="M 114.68862486808459 84.99185889309783 l 12.196543014972224 -12.461849916449998 a38.437126049214434,38.437126049214434 0 0,0 0.46886741134594184,0.4668539456760497 l -12.40924622648549 12.250060120123829" fill="#ffac0f" stroke="none" /><path d="M 114.94478906791727 85.2469230424477 l 12.630324891081555 -12.468302782341155 a38.747779611162926,38.747779611162926 0 0,0 0.46448575382313134,0.47869339876518724 l -12.843074908607795 12.249045188025853" fill="#ffb110" stroke="none" /><path d="M 115.19652480421416 85.50635884689758 l 12.873819007860167 -12.278367282904785 a38.79026472487266,38.79026472487266 0 0,0 0.45667719187642625,0.4871513873973946 l -13.083263521707055 12.054946478629336" fill="#ffb110" stroke="none" /><path d="M 115.68641384162765 86.03803664274999 l 11.948975789441013 -10.63539211786677 a36.996549250304895,36.996549250304895 0 0,0 0.41930855910073456,0.4793421678656884 l -12.130276212119595 10.428134393798134" fill="#ff980e" stroke="none" /><path d="M 115.9244219780498 86.31012108654704 l 13.411861445994074 -11.529885320343194 a38.686613099935435,38.686613099935435 0 0,0 0.4297702969688187,0.5087124750813589 l -13.60834235645001 11.29731389563273" fill="#ffb010" stroke="none" /><path d="M 116.38621287248628 86.86637796730983 l 13.867092737293598 -11.11453611161608 a38.771583327354904,38.771583327354904 0 0,0 0.41290982857495345,0.5243535506405884 l -14.056356646462516 10.874190167022453" fill="#ffb110" stroke="none" /><path d="M 116.60985879189232 87.15038557335679 l 13.756904927228524 -10.64253021254828 a38.39298371475715,38.39298371475715 0 0,0 0.39987948880957996,0.5261945339266028 l -13.938060356262218 10.404150902740644" fill="#ffac0f" stroke="none" /><path d="M 116.82858285166822 87.43820079747576 l 14.142335857984168 -10.556633607745818 a38.64789439701556,38.64789439701556 0 0,0 0.3933571419174935,0.5365386995118138 l -14.32195561241529 10.31163246456251" fill="#ffaf10" stroke="none" /><path d="M 117.2510076193507 88.02491185347247 l 26.20385854971751 -18.189865939194164 a52.898486261568266,52.898486261568266 0 0,0 0.5128017907625679,0.7524733515266152 l -26.51308480614881 17.73611456439714" fill="#96ff23" stroke="none" /><path d="M 117.45458315368197 88.32363383020206 l 10.476631749428234 -7.008416497569011 a33.60467034937944,33.60467034937944 0 0,0 0.31748950785736463,0.48355830216988255 l -10.595717892643524 6.827040131421454" fill="#ff6609" stroke="none" /><path d="M 117.65298651832404 88.62581576622439 l 14.430515451828915 -9.297879492916005 a38.16654709807016,38.16654709807016 0 0,0 0.3510820783774361,0.5553275354496131 l -14.588425126452307 9.048104309752185" fill="#ffa80f" stroke="none" /><line stroke="#e1ed5e" stroke-width="0.3" x1="172.23445277983987" x2="176.4835382374775" y1="55.19839476539836" y2="52.563006222186495" /><path d="M 173.08426987136738 54.67131705675599 a86.0,86.0 0 0,1 12.851231095245387,41.99856678651699" fill="none" id="id15" stroke="none" /><text fill="#e1ed5e" style="font-size:6.75px; font-family:Arial;" text-anchor="middle"><textPath startOffset="22.20632615414155" xlink:href="#id15">March</textPath></text><path d="M 117.84615892207809 88.93136811851018 l 18.53637086517962 -11.496718505158025 a42.8121888227276,42.8121888227276 0 0,0 0.38303494859893433,0.6296087432381839 l -18.73152161206478 11.17594198871276" fill="#ffe915" stroke="none" /><path d="M 118.03404312379186 89.2402003453031 l 19.989337576262386 -11.926403085225877 a44.2768706506923,44.2768706506923 0 0,0 0.38487211342917066,0.6578711999790275 l -20.191669364161882 11.580552472892954" fill="#fffc17" stroke="none" /><path d="M 118.21658344932153 89.55222093294921 l 18.872244538102986 -10.823821161744776 a42.75584331731115,42.75584331731115 0 0,0 0.360660520655222,0.641574822663285 l -19.055762700050643 10.497362829146697" fill="#ffe815" stroke="none" /><path d="M 118.73160827565052 90.50648371742162 l 18.274035091214117 -9.261609955423074 a41.48701485041968,41.48701485041968 0 0,0 0.3173558822939611,0.6397700933861947 l -18.430750986461483 8.94568027353793" fill="#ffd714" stroke="none" /><path d="M 118.89224826269711 90.83032412892265 l 19.378819546598987 -9.405841567161476 a42.54085658942535,42.54085658942535 0 0,0 0.3140767257687302,0.6615256840202355 l -19.537854466209474 9.0708734675007" fill="#ffe515" stroke="none" /><path d="M 119.04729006885535 91.15688171328212 l 19.614103751369246 -9.106273854931565 a42.62492287825525,42.62492287825525 0 0,0 0.30324117702987413,0.6681517374440982 l -19.767947245362464 8.767300108645404" fill="#ffe615" stroke="none" /><path d="M 119.196687751892 91.48605970444005 l 19.253565806569757 -8.539166332880171 a42.06222110624866,42.06222110624866 0 0,0 0.28784437798186696,0.6643845105490539 l -19.397700894394305 8.206482677744514" fill="#ffde14" stroke="none" /><path d="M 119.34039704204932 91.81776055985345 l 19.655776355318412 -8.315665297435112 a42.34244206901499,42.34244206901499 0 0,0 0.2782066061810285,0.6736993640174173 l -19.79600464838564 7.976091362964391" fill="#ffe215" stroke="none" /><path d="M 119.7369772167798 92.82701384747503 l 11.580376509608554 -4.208642459891345 a33.321436257981205,33.321436257981205 0 0,0 0.19127602304247343,0.5407630746473457 l -11.651105613460837 4.008681758817384" fill="#ff6209" stroke="none" /><path d="M 119.85752413597 93.16781622104841 l 20.13973774751571 -6.929282251339152 a42.298450390989316,42.298450390989316 0 0,0 0.2309549900519698,0.6905260237493953 l -20.25603003133945 6.581583124667443" fill="#ffe215" stroke="none" /><path d="M 120.08093135843002 93.85539295169968 l 19.26135736820039 -5.893823853682478 a41.14291556065715,41.14291556065715 0 0,0 0.20139281406032078,0.6789964512806042 l -19.359956079372413 5.561398015655344" fill="#ffd213" stroke="none" /><path d="M 120.18372546131832 94.20196356495316 l 11.402161401291698 -3.2754184736446583 a32.8632900495014,32.8632900495014 0 0,0 0.15150482092888265,0.5450434503193224 l -11.456852992786944 3.078663719906384" fill="#ff5b08" stroke="none" /><path d="M 120.28053869075195 94.5502522615342 l 11.387597404747638 -3.0600534901660152 a32.79157758806227,32.79157758806227 0 0,0 0.14179026327407745,0.5463757242835806 l -11.43858399989202 2.8635813403335844" fill="#ff5a08" stroke="none" /><path d="M 120.45610955862082 95.25157060432595 l 16.855194426689703 -3.9125572952245644 a38.303343137958244,38.303343137958244 0 0,0 0.14355657626401433,0.6435359827757265 l -16.920045389955757 3.6218431428988738" fill="#ffaa0f" stroke="none" /><path d="M 120.53481517161879 95.60439243477599 l 17.193469717084852 -3.6803713561211704 a38.58296147499821,38.58296147499821 0 0,0 0.1334248489523295,0.6506269483621953 l -17.25427386195218 3.383868751595563" fill="#ffae10" stroke="none" /><path d="M 120.6074358757038 95.95851677861258 l 17.49495759540254 -3.4310710952674097 a38.82823014563455,38.82823014563455 0 0,0 0.12298245809515528,0.6569772087653782 l -17.551425777407555 3.1294158090394686" fill="#ffb210" stroke="none" /><path d="M 120.67395015179393 96.31383870115 l 22.489947322742818 -4.009953241909891 a43.8446373484468,43.8446373484468 0 0,0 0.1260807634187432,0.744135802720221 l -22.555639947681787 3.6222316508738324" fill="#fff617" stroke="none" /><path d="M 120.73433829027371 96.67025291283417 l 22.64890653859937 -3.637209421328334 a43.93909893105675,43.93909893105675 0 0,0 0.11349700783797079,0.747803474221514 l -22.70815943987664 3.246806834714738" fill="#fff817" stroke="none" /><path d="M 120.83666639777658 97.38593545837742 l 23.021085696655327 -2.8881109233338234 a44.2015424348949,44.2015424348949 0 0,0 0.08821290667349191,0.7557543136642261 l -23.067388956332408 2.4914128713447448" fill="#fffb17" stroke="none" /><path d="M 120.87857604477298 97.74499172005257 l 22.417170873181835 -2.4211855168483556 a43.54754286534185,43.54754286534185 0 0,0 0.07407825717268411,0.7459579403029032 l -22.455526256036748 2.0349520458410173" fill="#fff216" stroke="none" /><path d="M 120.91429891909075 98.10471618934814 l 22.780666407824313 -2.064416713447607 a43.87401535260779,43.87401535260779 0 0,0 0.0616858547712932,0.7527236727503465 l -22.8128267464151 1.6719791234894918" fill="#fff717" stroke="none" /><path d="M 120.94382443527127 98.46500227214037 l 22.93498277816684 -1.6809320839081003 a43.996499031494366,43.996499031494366 0 0,0 0.04885582644234543,0.7557780109624622 l -22.960519195613603 1.2858950086926029" fill="#fff817" stroke="none" /><path d="M 120.96714384426684 98.82574320788733 l 22.768281518355742 -1.27512881183257 a43.803960111916204,43.803960111916204 0 0,0 0.03568227155232058,0.7531963563020039 l -22.78685739814156 0.8830213489075665" fill="#fff617" stroke="none" /><path d="M 120.98425023603335 99.18683210126433 l 22.78745957190542 -0.8830446839502162 a43.804562737642584,43.804562737642584 0 0,0 0.02271226015830083,0.7537093426716559 l -22.799283526519364 0.49066519385356117" fill="#fff617" stroke="none" /><line stroke="#e1ed5e" stroke-width="0.3" x1="184.98032266829074" x2="189.97916517819016" y1="98.17113171792111" y2="98.06355123074" /><path d="M 185.9800911702706 98.14961562048488 a86.0,86.0 0 0,1 -9.607161424134198,41.387399972396054" fill="none" id="id16" stroke="none" /><text fill="#e1ed5e" style="font-size:6.75px; font-family:Arial;" text-anchor="middle"><textPath startOffset="21.466115282336823" xlink:href="#id16">April</textPath></text><path d="M 120.99824983174949 100.27111621757518 l 20.415709964475116 0.26359482857049876 a41.41741157902288,41.41741157902288 0 0,0 -0.015340096714804113,0.7127940165843472 l -20.408147805075306 -0.6149786609449608" fill="#ffd614" stroke="none" /><path d="M 120.9904718944345 100.63252640178507 l 22.65853601076029 0.6827918078584848 a43.66882129277567,43.66882129277567 0 0,0 -0.029108112333372523,0.751151040334753 l -22.643425765575714 -1.072720095207244" fill="#fff417" stroke="none" /><path d="M 120.95626037817324 101.35467743843564 l 22.636940733776928 1.4633218109463808 a43.684188248798336,43.684188248798336 0 0,0 -0.0549660278803882,0.7499677797154243 l -22.6083981472322 -1.8527627271585754" fill="#fff417" stroke="none" /><path d="M 120.92983693683757 101.71520430193887 l 21.26257614805812 1.7424723465123446 a42.33385465241409,42.33385465241409 0 0,0 -0.0657694809134582,0.7257607413975599 l -21.229432070867585 -2.108214476458475" fill="#ffe215" stroke="none" /><path d="M 120.81339534386255 102.79330883721812 l 19.834169813587422 2.6618896582635525 a41.01199512160127,41.01199512160127 0 0,0 -0.09992465000472596,0.6988727693991608 l -19.785411112566095 -3.002907899643122" fill="#ffd013" stroke="none" /><path d="M 120.02730092923936 106.31721596034902 l 16.238938467073822 5.1222519512628395 a38.02764186813975,38.02764186813975 0 0,0 -0.20228487010715296,0.6225688145484236 l -16.148361345950423 -5.401019665789058" fill="#ffa60f" stroke="none" /><line stroke="#e1ed5e" stroke-width="0.3" x1="174.80103733775053" x2="179.2010983576182" y1="140.37084112569926" y2="142.7455964860345" /><path d="M 175.68104954172406 140.8457921977663 a86.0,86.0 0 0,1 -30.038265399797805,32.042727171017184" fill="none" id="id17" stroke="none" /><text fill="#e1ed5e" style="font-size:6.75px; font-family:Arial;" text-anchor="middle"><textPath startOffset="22.206326154141568" xlink:href="#id17">May</textPath></text><path d="M 118.30583269289576 110.29060199501025 l 13.35121507323238 7.5053696148843265 a36.316184805222754,36.316184805222754 0 0,0 -0.3110187306943142,0.542287372812365 l -13.220044346385686 -7.734076833555006" fill="#ff8e0d" stroke="none" /><path d="M 117.55443506779139 111.5257021239791 l 10.053216788554291 6.600632925252023 a33.026450964918574,33.026450964918574 0 0,0 -0.31610543253589185,0.4725347318928591 l -9.938108250607678 -6.772704571350689" fill="#ff5e08" stroke="none" /><path d="M 116.71984013943494 112.70617746262583 l 7.239946274022626 5.501969002720207 a30.0933208981993,30.0933208981993 0 0,0 -0.3169732109500342,0.4097306035717484 l -7.144166245854523 -5.6257776004052085" fill="#ff3104" stroke="none" /><path d="M 116.0416608686014 113.55231037782055 l 24.484852271319966 20.685284413754296 a53.052909103952935,53.052909103952935 0 0,0 -0.5953483533051016,0.6925246353093029 l -24.125161408444086 -21.103686148225126" fill="#94ff23" stroke="none" /><path d="M 115.80600337817218 113.82643327865902 l 9.389144742922984 8.213232670250706 a33.47450319248153,33.47450319248153 0 0,0 -0.3831095526062563,0.43042764366961145 l -9.246376340668387 -8.373634483661185" fill="#ff6409" stroke="none" /><path d="M 115.32070863581623 114.36230785411682 l 15.422707470840535 14.457926059788822 a42.139809168519974,42.139809168519974 0 0,0 -0.5006479196993514,0.524927342240764 l -15.17155299976222 -14.721260518612093" fill="#ffe014" stroke="none" /><path d="M 114.81725581225074 114.88116024355365 l 14.90686730984545 14.971158221065062 a42.12700337183442,42.12700337183442 0 0,0 -0.5182625393989762,0.5072289746070855 l -14.64695481807068 -15.22553729859472" fill="#ffdf14" stroke="none" /><line stroke="#e1ed5e" stroke-width="0.3" x1="143.8653032363475" x2="146.44561519142675" y1="172.8068346515853" y2="177.08958963109032" /><path d="M 144.38136562736335 173.6633856474863 a86.0,86.0 0 0,1 -40.68145358897372,12.25698825130547" fill="none" id="id18" stroke="none" /><text fill="#e1ed5e" style="font-size:6.75px; font-family:Arial;" text-anchor="middle"><textPath startOffset="21.466115282336833" xlink:href="#id18">June</textPath></text><path d="M 109.89434966115114 118.52300852407294 l 5.708469759306799 10.68670884214036 a33.115790228854294,33.115790228854294 0 0,0 -0.5051089943012483,0.2642491528930469 l -5.523669862479054 -10.783387413978124" fill="#ff5f08" stroke="none" /><path d="M 109.2508944713604 118.85261126421891 l 9.188575869533814 18.72561074784685 a41.85853361073248,41.85853361073248 0 0,0 -0.6495793257059139,0.3118375512094536 l -8.864883875827667 -18.88100257555586" fill="#ffdc14" stroke="none" /><path d="M 108.59647513512805 119.15986991738527 l 8.725924889835227 19.448388225417354 a42.316227849917496,42.316227849917496 0 0,0 -0.6671441984561645,0.2924564110424485 l -8.389860016721308 -19.595709189754256" fill="#ffe215" stroke="none" /><path d="M 107.93186726928326 119.44442032107085 l 5.766494249712018 14.13615913678425 a36.26707080852285,36.26707080852285 0 0,0 -0.5800640342038142,0.23081945036702958 l -5.522309139466337 -14.233325431557349" fill="#ff8d0d" stroke="none" /><path d="M 106.91757812671514 119.82793768551818 l 2.999933138545113 8.598744566696956 a30.107030633474423,30.107030633474423 0 0,0 -0.4907879922487804,0.16650193386373477 l -2.851475413359106 -8.649109487458814" fill="#ff3104" stroke="none" /><path d="M 104.83641907484287 120.43548508189849 l 2.1386902600921114 9.036680285265382 a30.286311787072243,30.286311787072243 0 0,0 -0.5083483168642107,0.1156984218782673 l -1.9828217938350385 -9.072155440721334" fill="#ff3404" stroke="none" /><path d="M 104.48393922423573 120.51570834832081 l 2.575008013642454 11.781630115979517 a33.05974603630103,33.05974603630103 0 0,0 -0.5569914490771228,0.11672297368053129 l -2.371825103135953 -11.824209070386589" fill="#ff5e08" stroke="none" /><path d="M 103.41894727170886 120.7198165907248 l 1.989190076679222 12.055071423281367 a33.21808594590716,33.21808594590716 0 0,0 -0.5649670942594279,0.08823624098819137 l -1.781387118811277 -12.087525971616664" fill="#ff6008" stroke="none" /><line stroke="#e1ed5e" stroke-width="0.3" x1="102.19456741930631" x2="102.32365962044197" y1="184.97166512339345" y2="189.96999836594603" /><path d="M 102.22038585953345 185.97133177190398 a86.0,86.0 0 0,1 -42.740103519485714,-10.115201625700543" fill="none" id="id19" stroke="none" /><text fill="#e1ed5e" style="font-size:6.75px; font-family:Arial;" text-anchor="middle"><textPath startOffset="22.20632615414155" xlink:href="#id19">July</textPath></text><path d="M 100.54218724476979 120.99299961872073 l 0.31609761422065696 12.239013659626522 a33.24309491355191,33.24309491355191 0 0,0 -0.5721616444991273,0.009850281590982318 l -0.10537627982886169 -12.242641418496664" fill="#ff6108" stroke="none" /><path d="M 97.65516085044442 120.86867818915974 l -1.4015035803639018 12.473148618792347 a33.551639285458066,33.551639285458066 0 0,0 -0.5733696786296466,-0.06942708312130491 l 1.6160006820449377 -12.447176006945694" fill="#ff6509" stroke="none" /><path d="M 95.51606077576429 120.51570834832081 l -3.246585595853285 14.85435013311054 a36.20500035870579,36.20500035870579 0 0,0 -0.6076920532222844,-0.1383087328379239 l 3.501797798468432 -14.79626466669493" fill="#ff8c0c" stroke="none" /><path d="M 92.7421414339146 119.70592522655815 l -4.265209013852396 11.580535654878478 a33.34102159408853,33.34102159408853 0 0,0 -0.5368377272017044,-0.20298609304936896 l 4.463916961814384 -11.505401311722476" fill="#ff6209" stroke="none" /><path d="M 91.7346041902142 119.30500536409082 l -3.5633290078015483 8.322660788753208 a30.053396943826673,30.053396943826673 0 0,0 -0.47381230401929403,-0.2077053900219728 l 3.7060619864785855 -8.260090845436784" fill="#ff3004" stroke="none" /><path d="M 91.40352486487194 119.15986991738527 l -4.938949097651158 11.007956255569857 a33.06516966783844,33.06516966783844 0 0,0 -0.5172841172031092,-0.2374597670241722 l 5.127701210621687 -10.92130941821161" fill="#ff5e08" stroke="none" /><path d="M 91.07499286063937 119.00905698771935 l -6.406745206718021 13.64549997984933 a36.074682545376284,36.074682545376284 0 0,0 -0.5598229546405197,-0.26874903861238103 l 6.640680829358783 -13.533196664737387" fill="#ff8a0c" stroke="none" /><path d="M 90.7491055286396 118.85261126421891 l -7.667378135277036 15.625526790696686 a38.40533754214793,38.40533754214793 0 0,0 -0.5909778452795086,-0.29632856012196507 l 7.935209888239306 -15.491230389665418" fill="#ffac0f" stroke="none" /><path d="M 90.42595943632237 118.69057910512821 l -5.498668422166415 10.734579244136198 a33.06095128775379,33.06095128775379 0 0,0 -0.5042725461236147,-0.26381156273949125 l 5.682631870816525 -10.63833826245199" fill="#ff5e08" stroke="none" /><path d="M 90.10565033884886 118.52300852407294 l -7.1084006296506 13.307490635036313 a36.08703637276706,36.08703637276706 0 0,0 -0.5453905777134715,-0.2973904283139377 l 7.336414019232712 -13.183159554962609" fill="#ff8b0c" stroke="none" /><line stroke="#e1ed5e" stroke-width="0.3" x1="58.666819895761336" x2="56.23545636021788" y1="174.27360380694188" y2="178.64263932499728" /><path d="M 58.180547188652646 175.14741091055294 a86.0,86.0 0 0,1 -31.652253787137756,-30.449443065178592" fill="none" id="id20" stroke="none" /><text fill="#e1ed5e" style="font-size:6.75px; font-family:Arial;" text-anchor="middle"><textPath startOffset="22.20632615414155" xlink:href="#id20">August</textPath></text><path d="M 89.7882731507175 118.34994917583269 l -7.455827999893668 13.39774035097816 a36.332606356266595,36.332606356266595 0 0,0 -0.5438666480504185,-0.30882167681063705 l 7.685343414865293 -13.267415508372888" fill="#ff8e0d" stroke="none" /><path d="M 89.4739219176387 118.17145234162733 l -7.689874333044085 13.275237354563417 a36.341645742162285,36.341645742162285 0 0,0 -0.5386041797459762,-0.3182168430601705 l 7.917246383818443 -13.140901939209499" fill="#ff8e0d" stroke="none" /><path d="M 89.1626897886671 117.98757091392108 l -7.776366793439395 12.907072550472677 a36.06865628811249,36.06865628811249 0 0,0 -0.5290426841538559,-0.3249812264625726 l 7.99738867752556 -12.771302857181727" fill="#ff8a0c" stroke="none" /><path d="M 88.8546689885994 117.79835938074946 l -4.84904655417454 7.7436078961586245 a30.136559294067006,30.136559294067006 0 0,0 -0.4372932400282923,-0.2791012355996149 l 4.981621596249756 -7.658992231735206" fill="#ff3204" stroke="none" /><path d="M 88.54995079064634 117.60387380957326 l -8.258016335931805 12.69628408027986 a36.14564172465744,36.14564172465744 0 0,0 -0.5186474467580862,-0.34373124673039523 l 8.475338481429851 -12.552254812458145" fill="#ff8c0c" stroke="none" /><path d="M 88.24862548938628 117.40417183066458 l -8.490007676959278 12.57398037310479 a36.171855943754935,36.171855943754935 0 0,0 -0.5130256315838092,-0.35286370742080525 l 8.70519019316598 -12.425975876318883" fill="#ff8c0c" stroke="none" /><path d="M 87.95078237400918 117.19931262002967 l -8.68064052815571 12.390933156008328 a36.12906951718201,36.12906951718201 0 0,0 -0.5062760871025941,-0.3612145456838793 l 8.89264394310719 -12.239674348480229" fill="#ff8b0c" stroke="none" /><path d="M 87.65650970185807 116.9893568818739 l -8.893529479393735 12.240893184614949 a36.130576081497956,36.130576081497956 0 0,0 -0.5000042112723257,-0.3698911620868097 l 9.102918661084624 -12.085992073788372" fill="#ff8b0c" stroke="none" /><path d="M 87.36589467227662 116.77436683061367 l -9.104187600568002 12.087676851287679 a36.13268527154028,36.13268527154028 0 0,0 -0.49359187460911547,-0.37846520161298147 l 9.310908203670603 -11.929172307847331" fill="#ff8b0c" stroke="none" /><path d="M 87.07902340077011 116.55440617244103 l -9.348543016062363 11.977390177895476 a36.19385178276777,36.19385178276777 0 0,0 -0.4878285027052814,-0.3875604660699721 l 9.553329011485003 -11.814695797820374" fill="#ff8c0c" stroke="none" /><path d="M 86.79598089348748 116.32954008644616 l -9.546887564471279 11.80672959704644 a36.18360714541932,36.18360714541932 0 0,0 -0.480948838632875,-0.39578815136461964 l 9.74870653164884 -11.640646326824639" fill="#ff8c0c" stroke="none" /><path d="M 86.51685102203217 116.09983520530335 l -9.74657847886518 11.638105281021383 a36.180292703924245,36.180292703924245 0 0,0 -0.4740213138284188,-0.4039712473173684 l 9.945465269270654 -11.468609643481063" fill="#ff8c0c" stroke="none" /><path d="M 85.97065885151581 115.62618273729859 l -10.447475930087927 11.636624008157456 a36.63843891240405,36.63843891240405 0 0,0 -0.46565789774056027,-0.4253674489438082 l 10.646233377295342 -11.455063792627072" fill="#ff930d" stroke="none" /><path d="M 85.70375840098266 115.38237550388516 l -10.905204681101345 11.733710023686044 a37.018846402180934,37.018846402180934 0 0,0 -0.4630249715258744,-0.43781901113925054 l 11.105565487018037 -11.544256375800863" fill="#ff980e" stroke="none" /><path d="M 85.44109423537348 115.13401014063109 l -11.64117111698435 12.101019443461066 a37.791412583399094,37.791412583399094 0 0,0 -0.4649244400336745,-0.45502641819634126 l 11.84774550939382 -11.898842922342155" fill="#ffa30f" stroke="none" /><path d="M 85.18274418774928 114.88116024355367 l -11.0264662325056 11.0740216005709 a36.627440992897625,36.627440992897625 0 0,0 -0.44294676287483903,-0.44870273221834267 l 11.215453620435971 -10.882578374371892" fill="#ff920d" stroke="none" /><path d="M 84.9287848128048 114.62390073753433 l -8.988884036176625 8.722093491037047 a33.52497309706579,33.52497309706579 0 0,0 -0.3982981501387912,-0.4176140180455024 l 9.137688737694374 -8.566072356409045" fill="#ff6509" stroke="none" /><path d="M 84.67929136418377 114.36230785411682 l -14.566378889294917 13.655165886954164 a40.96604490996485,40.96604490996485 0 0,0 -0.4778466595668654,-0.518608173098378 l 14.799271956857512 -13.402406459054442" fill="#ffd013" stroke="none" /><path d="M 84.43433777217949 114.09645910891817 l -14.621940214137238 13.24181260680563 a40.7268024965923,40.7268024965923 0 0,0 -0.46611078867504385,-0.523680412282961 l 14.84770985246062 -12.988158024781804" fill="#ffcc13" stroke="none" /><path d="M 83.95833913139862 113.55231037782056 l -9.852173783192677 8.323310042502781 a33.897395795968144,33.897395795968144 0 0,0 -0.37271639440386034,-0.4489609073241837 l 9.993986177490076 -8.152487878064836" fill="#ff6b09" stroke="none" /><path d="M 83.72743513129214 113.27417163493432 l -12.606071972291268 10.283269069912569 a37.26833345290193,37.26833345290193 0 0,0 -0.4012239352984639,-0.5005885502851365 l 12.781213819644593 -10.064752686049173" fill="#ff9c0e" stroke="none" /><path d="M 82.85270091963577 112.12312394758628 l -11.589158130159648 8.19352364483972 a35.19304110768348,35.19304110768348 0 0,0 -0.3454600746735049,-0.4976610031970603 l 11.728479111995286 -7.992821379455647" fill="#ff7e0b" stroke="none" /><path d="M 82.44556493220864 111.52570212397912 l -17.924313651578604 11.768553025321584 a42.44247793959394,42.44247793959394 0 0,0 -0.39571575079997723,-0.6141596329358587 l 18.124234265755625 -11.458271792464277" fill="#ffe415" stroke="none" /><path d="M 82.05923443525364 110.91462005526583 l -18.203589607240172 11.07451426685097 a42.30764043331659,42.30764043331659 0 0,0 -0.37315162439680843,-0.625423586130386 l 18.391522107335213 -10.759528586834472" fill="#ffe215" stroke="none" /><line stroke="#e1ed5e" stroke-width="0.3" x1="26.63291911575756" x2="22.317208475507996" y1="142.92168965132927" y2="145.44649492493687" /><path d="M 25.769776987707644 143.4266507060508 a86.0,86.0 0 0,1 -11.730757126820373,-40.83630448921669" fill="none" id="id21" stroke="none" /><text fill="#e1ed5e" style="font-size:6.75px; font-family:Arial;" text-anchor="middle"><textPath startOffset="21.46611528233685" xlink:href="#id21">September</textPath></text><path d="M 81.69416730710424 110.29060199501025 l -27.90657807645372 15.687649551113442 a53.01373843173829,53.01373843173829 0 0,0 -0.4403260288410438,-0.799319643687368 l 28.17248051474628 -15.20495938902825" fill="#94ff23" stroke="none" /><path d="M 81.18737489456691 109.33194174019688 l -18.99334183558715 9.421585688759357 a42.201728961905445,42.201728961905445 0 0,0 -0.3172097848507177,-0.6535461112272071 l 19.152704877052585 -9.093250621566867" fill="#ffe015" stroke="none" /><path d="M 80.87730276802145 108.67885076344099 l -19.467451792161924 8.835317884242537 a42.378599612597746,42.378599612597746 0 0,0 -0.2957600757061775,-0.6668608923377581 l 19.61665295259938 -8.498908655412082" fill="#ffe315" stroke="none" /><path d="M 80.58989483394504 108.01547362559985 l -33.374268708325964 13.78202582194663 a57.10797761675873,57.10797761675873 0 0,0 -0.36738754671770085,-0.9118257617199107 l 33.606558869301054 -13.205500692383914" fill="#65ff29" stroke="none" /><path d="M 80.45479744820244 107.68017299344265 l -11.560260271040955 4.542536640156296 a33.42071884640218,33.42071884640218 0 0,0 -0.20578524413984867,-0.5372403362876337 l 11.636739794774313 -4.3428727370355045" fill="#ff6309" stroke="none" /><path d="M 80.20201598880116 107.00284435728193 l -30.346777127718937 10.73411095040431 a53.18925317454624,53.18925317454624 0 0,0 -0.29788304136231575,-0.8657875541597226 l 30.527051000024482 -10.21015069315529" fill="#92ff23" stroke="none" /><path d="M 79.97269907076064 106.31721596034903 l -36.14382559050421 11.40085489777862 a58.899282588420974,58.899282588420974 0 0,0 -0.2966651055452746,-0.9695187298500922 l 36.33471746855561 -10.777009195376479" fill="#51ff2b" stroke="none" /><path d="M 79.76711848015287 105.62410040840567 l -40.653881372786444 11.300491756830668 a63.19525073534687,63.19525073534687 0 0,0 -0.2823080017879407,-1.0505730958073707 l 40.84237745091615 -10.59902772784776" fill="#31ff3f" stroke="none" /><path d="M 79.67330655649465 105.27499134158121 l -5.766837068059851 1.4965550440789916 a26.957859243848198,26.957859243848198 0 0,0 -0.11269500154458288,-0.4501605117267257 l 5.791743383899493 -1.397066692954874" fill="#ff0000" stroke="none" /><path d="M 79.50377843672027 104.57218783832718 l -36.98671769556107 8.250799802547826 a58.895817490494295,58.895817490494295 0 0,0 -0.2122099355013403,-0.991374170337025 l 37.12326166978685 -7.6129118127946365" fill="#51ff2b" stroke="none" /><path d="M 79.35854240842038 103.8639653848113 l -37.05688808832821 6.936842139507484 a58.70056675514743,58.70056675514743 0 0,0 -0.1773695141580976,-0.9947824299757263 l 37.17080404482549 -6.297940958798544" fill="#53ff2b" stroke="none" /><path d="M 79.23777060512086 103.15116336523772 l -58.4772756243818 8.875320908067321 a80.14696176196284,80.14696176196284 0 0,0 -0.1952759693660562,-1.3657596749300998 l 58.62138564476445 -7.867415761156821" fill="#48f9ff" stroke="none" /><path d="M 79.10278846688536 102.07522291339032 l -37.6547092986427 3.7393465348124333 a58.83992395437262,58.83992395437262 0 0,0 -0.09141315590655202,-1.00873655809339 l 37.71349705082633 -3.090628588170477" fill="#52ff2b" stroke="none" /><path d="M 79.04373962182676 101.35467743843564 l -37.99504262538973 2.456116983096137 a59.07434536193414,59.07434536193414 0 0,0 -0.056862289937852854,-1.0153143847662138 l 38.03169126621512 -1.8017308819944855" fill="#4fff2b" stroke="none" /><path d="M 79.0095281055655 100.63252640178507 l -57.561087293725755 1.7345444929416087 a78.5872157256618,78.5872157256618 0 0,0 -0.029106973222571136,-1.3524866719977295 l 57.58241632963333 -0.7434680051537503" fill="#46fff5" stroke="none" /><line stroke="#e1ed5e" stroke-width="0.3" x1="15.007084014347285" x2="10.007500721073583" y1="101.09737516637583" y2="101.16192664675087" /><path d="M 14.007167355692545 101.11028546245083 a86.0,86.0 0 0,1 10.666146001902534,-42.60595125391555" fill="none" id="id22" stroke="none" /><text fill="#e1ed5e" style="font-size:6.75px; font-family:Arial;" text-anchor="middle"><textPath startOffset="22.20632615414155" xlink:href="#id22">October</textPath></text><path d="M 79.00019446554 99.90962569577889 l -44.41114623779939 -0.19112683849940001 a65.41155750053805,65.41155750053805 0 0,0 0.014536917774959572,-1.1259003019160516 l 44.40127631290672 0.9555633984759236" fill="#34ff5b" stroke="none" /><path d="M 79.01574976396665 99.18683210126434 l -44.84132095599112 -1.7376614521923959 a65.87497668412368,65.87497668412368 0 0,0 0.05366110279846436,-1.1327010681954903 l 44.80476624495916 2.509273627010895" fill="#35ff61" stroke="none" /><path d="M 79.08570108090925 98.10471618934814 l -40.89068778334806 -3.70557286486218 a62.05824664610087,62.05824664610087 0 0,0 0.10556661644380548,-1.0630414209610572 l 40.82084404122203 4.408889816527668" fill="#2fff30" stroke="none" /><path d="M 79.16333360222342 97.38593545837743 l -8.227187090425636 -1.0321419770233224 a29.291678025683332,29.291678025683332 0 0,0 0.06706957494212307,-0.49974623651190514 l 8.208201516425678 1.1736065555998871" fill="#ff2503" stroke="none" /><path d="M 79.21141760316559 97.0276538004421 l -41.06994068339095 -5.872169625425467 a62.48761747614607,62.48761747614607 0 0,0 0.16140880862381848,-1.0634823785941918 l 40.96277598132783 6.578251116411751" fill="#30ff35" stroke="none" /><path d="M 79.32604984820605 96.31383870115002 l -40.65807648440434 -7.24932714464773 a62.29929693665256,62.29929693665256 0 0,0 0.19732345888885813,-1.0541098076314972 l 40.52726730160562 7.9481150297418" fill="#30ff33" stroke="none" /><path d="M 79.46518482838121 95.60439243477599 l -31.393561792501572 -6.719991222768283 a53.104734916421556,53.104734916421556 0 0,0 0.1990305102233932,-0.8922147513702879 l 31.273236895276142 7.25938414368853" fill="#93ff23" stroke="none" /><path d="M 79.54389044137918 95.25157060432595 l -15.62304365651839 -3.6265409869809337 a37.03843173828826,37.03843173828826 0 0,0 0.14950686386598375,-0.6198024718576102 l 15.558303992391593 3.8949286904979403" fill="#ff980e" stroke="none" /><path d="M 79.62865764111835 94.90015583598534 l -30.85675974090562 -7.724805921611287 a52.80899634120094,52.80899634120094 0 0,0 0.22834526562040777,-0.8799074563315801 l 30.719218143414906 8.25480980349173" fill="#97ff23" stroke="none" /><path d="M 79.71946130924805 94.55025226153421 l -15.042721107947804 -4.042251371547297 a36.576368462586984,36.576368462586984 0 0,0 0.16862268341989334,-0.6066255094049008 l 14.970911653961549 4.300588184371141" fill="#ff920d" stroke="none" /><path d="M 79.81627453868168 94.20196356495316 l -18.428744812841536 -5.293895523986024 a40.17404404907095,40.17404404907095 0 0,0 0.19665022940090554,-0.6630068134741937 l 18.334888686328924 5.610331724206757" fill="#ffc512" stroke="none" /><path d="M 79.91906864156998 93.8553929516997 l -21.65697977697672 -6.626865467902898 a43.648181361647175,43.648181361647175 0 0,0 0.22602382697952492,-0.7165572981055972 l 21.539700466228993 6.99867293243491" fill="#fff417" stroke="none" /><path d="M 80.02781315780177 93.51064311812611 l -22.438083503036392 -7.290575275855166 a44.59279718774661,44.59279718774661 0 0,0 0.2434824192301678,-0.7279814424709223 l 22.30926379003445 7.67572982124841" fill="#feff18" stroke="none" /><path d="M 80.14247586403 93.16781622104843 l -30.090438682829348 -10.35292243195459 a52.82165148145491,52.82165148145491 0 0,0 0.3032136834584452,-0.857225914330769 l 29.907771918561092 10.86934597271197" fill="#96ff23" stroke="none" /><path d="M 80.2630227832202 92.82701384747504 l -14.199182691001356 -5.1603920752937995 a36.10782696032714,36.10782696032714 0 0,0 0.21732684033155114,-0.5823278839814745 l 14.108251262168176 5.4040430963046155" fill="#ff8b0c" stroke="none" /><path d="M 80.38941819471856 92.48833698450439 l -11.54349836518647 -4.421636777540824 a33.36136021235383,33.36136021235383 0 0,0 0.2100279526092139,-0.5344982305465397 l 11.465676862695565 4.619684012983128" fill="#ff6309" stroke="none" /><path d="M 80.65960295795068 91.81776055985345 l -34.651486887735125 -14.659821205123736 a58.624937226486836,58.624937226486836 0 0,0 0.40118800544456307,-0.9259972298372668 l 34.39400817244788 15.254117579547602" fill="#54ff2b" stroke="none" /><path d="M 80.95270993114464 91.15688171328213 l -8.253506852420287 -3.831869893950495 a30.09964846832628,30.09964846832628 0 0,0 0.22222399348846017,-0.46806040447075165 l 8.186324665090075 3.973372714061779" fill="#ff3104" stroke="none" /><path d="M 81.10775173730289 90.83032412892265 l -7.733637175331781 -3.753653097092137 a29.596455986799626,29.596455986799626 0 0,0 0.22639877649258955,-0.45640611836845546 l 7.667878385885779 3.886218803959554" fill="#ff2904" stroke="none" /><path d="M 81.26839172434947 90.50648371742162 l -56.19482482695157 -28.480548847735136 a84.0,84.0 0 0,0 0.6647622673595439,-1.284109110958658 l 55.69625312643191 29.44363068095413" fill="#4dd2ff" stroke="none" /><path d="M 81.6062741919709 89.86733742301443 l -19.264917269286077 -10.6125810670728 a42.99463376138891,42.99463376138891 0 0,0 0.3626748017266917,-0.6451580039299183 l 19.079384826266953 10.942622580937503" fill="#ffeb16" stroke="none" /><line stroke="#e1ed5e" stroke-width="0.3" x1="26.266209847984243" x2="21.928928074336255" y1="57.711370442889674" y2="55.22380399835377" /><path d="M 25.398753493254645 57.213857153982495 a86.0,86.0 0 0,1 29.58750427330803,-30.492523968695096" fill="none" id="id23" stroke="none" /><text fill="#e1ed5e" style="font-size:6.75px; font-family:Arial;" text-anchor="middle"><textPath startOffset="21.46611528233685" xlink:href="#id23">November</textPath></text><path d="M 81.96595687620814 89.24020034530311 l -18.931281728164464 -11.295126511754955 a43.04480235310998,43.04480235310998 0 0,0 0.38511611085912567,-0.633029626789158 l 18.73404981901912 11.619323911751186" fill="#ffec16" stroke="none" /><path d="M 82.34701348167596 88.62581576622439 l -10.299369600421139 -6.636096798994195 a33.25213429944759,33.25213429944759 0 0,0 0.314158825073367,-0.4784854437848427 l 10.183614139989851 6.812400306756704" fill="#ff6108" stroke="none" /><path d="M 82.54541684631803 88.32363383020206 l -18.751373907247718 -12.543863465546751 a43.56019800559581,43.56019800559581 0 0,0 0.42227574212212554,-0.6196375454744606 l 18.53267369945685 12.864779034291628" fill="#fff316" stroke="none" /><path d="M 82.95767976084542 87.72973835380427 l -25.834905503512154 -18.600815246067793 a52.83445727814047,52.83445727814047 0 0,0 0.5377475651376091,-0.7334870745148365 l 25.51089532586091 19.04276476425413" fill="#96ff23" stroke="none" /><path d="M 83.17141714833178 87.43820079747576 l -8.991261061016846 -6.711582135079915 a32.21998708659157,32.21998708659157 0 0,0 0.3355850657860046,-0.44159060973513253 l 8.874400055006733 6.865357520696074" fill="#ff5107" stroke="none" /><path d="M 83.39014120810768 87.1503855733568 l -10.515605199857397 -8.135016316148816 a34.294978118946844,34.294978118946844 0 0,0 0.36523485297245295,-0.46381117309498593 l 10.374016266290973 8.31481988319685" fill="#ff700a" stroke="none" /><path d="M 83.6137871275137 86.86637796730984 l -24.826070588013106 -19.89820528984604 a52.8162278499175,52.8162278499175 0 0,0 0.574694652692523,-0.7045076915403988 l 24.479877443244188 20.32259715099452" fill="#97ff23" stroke="none" /><path d="M 83.84228863543731 86.58626213691792 l -19.886770655745572 -16.50951192905059 a46.84661740440491,46.84661740440491 0 0,0 0.5204199349750968,-0.6160130541131101 l 19.59964010728335 16.849383932792815" fill="#e0ff1b" stroke="none" /><path d="M 84.07557802195018 86.31012108654704 l -20.581792741943616 -17.693719172185563 a48.141810746825456,48.141810746825456 0 0,0 0.5456258409447653,-0.6237446571634847 l 20.274175037421006 18.04537938555199" fill="#d0ff1d" stroke="none" /><path d="M 84.31358615837235 86.03803664274999 l -18.636774066076704 -16.58798239259706 a45.94975966712103,45.94975966712103 0 0,0 0.5309524473995848,-0.5862909537351835 l 18.348477978061073 16.906326133601798" fill="#ecff1a" stroke="none" /><path d="M 84.5562425177563 85.77008943001954 l -18.652611088677034 -17.18655502028374 a46.36331157184877,46.36331157184877 0 0,0 0.5458345562964915,-0.5822582474432534 l 18.354009210410087 17.505082684605046" fill="#e7ff1a" stroke="none" /><path d="M 84.80347519578584 85.50635884689758 l -18.543161735952175 -17.6854863534524 a46.62470048066576,46.62470048066576 0 0,0 0.558909681196284,-0.5760055560207646 l 18.23598779105277 18.00205610502329" fill="#e3ff1b" stroke="none" /><path d="M 85.05521093208273 85.24692304244772 l -18.253356725904645 -18.0192022307649 a46.649106822584116,46.649106822584116 0 0,0 0.5690395772436567,-0.5665959404587904 l 17.940481348493673 18.330734021873802" fill="#e3ff1b" stroke="none" /><path d="M 85.31137513191541 84.99185889309783 l -17.962716084465885 -18.35345242185627 a46.680895329650625,46.680895329650625 0 0,0 0.5791026398356361,-0.5570962806994558 l 17.64413020101782 18.659931789318044" fill="#e3ff1b" stroke="none" /><path d="M 85.57189188830299 84.74124197986013 l -22.56018276330305 -23.859009581186346 a53.83617189181434,53.83617189181434 0 0,0 0.6788282801722573,-0.6308969050415465 l 22.146146599335935 24.24381107230254" fill="#8aff24" stroke="none" /><path d="M 85.83668400450813 84.49514656593479 l -18.34768729910297 -20.0855648858784 a48.2041825095057,48.2041825095057 0 0,0 0.617447402236928,-0.5543503741672486 l 17.99922890927007 20.39841426881493" fill="#cfff1d" stroke="none" /><path d="M 86.10567301691215 84.25364557470407 l -33.96449740466607 -38.49175384039072 a72.33422053231939,72.33422053231939 0 0,0 0.9407106760680147,-0.8157750283692448 l 33.29689292995128 39.070693862179645" fill="#3dffaf" stroke="none" /><path d="M 86.37877921826538 84.01681056812374 l -13.39177371669758 -15.713955420928235 a41.6462586986154,41.6462586986154 0 0,0 0.549616510103445,-0.46028802108697653 l 13.119299669635025 15.942144599409023" fill="#ffd914" stroke="none" /><path d="M 86.65592168130627 83.78471172551755 l -18.53725011404618 -22.525861077594932 a50.172659444723436,50.172659444723436 0 0,0 0.6715887645186893,-0.5430447417061277 l 18.146757950962993 22.841611916565192" fill="#b7ff1f" stroke="none" /><path d="M 86.93701828274178 83.55741782278169 l -18.328284571138973 -23.07010235115356 a50.46448095272258,50.46448095272258 0 0,0 0.6847968663001518,-0.5344948162151715 l 17.928455149679394 23.382175556591953" fill="#b3ff20" stroke="none" /><path d="M 87.22198572758235 83.33499621200491 l -17.927538440139802 -23.38097998992376 a50.462974388406636,50.462974388406636 0 0,0 0.6938751403544893,-0.5226123701747333 l 17.52241714602692 23.686108949604346" fill="#b3ff20" stroke="none" /><path d="M 87.51073957382395 83.11751280151077 l -17.252185354324876 -23.32082032494946 a50.00859459071669,50.00859459071669 0 0,0 0.6964403671723826,-0.505993544970406 l 16.848199670798714 23.614333104736534" fill="#b9ff1f" stroke="none" /><path d="M 87.80319425747018 82.90503203632743 l -11.631197360868926 -16.30221473232757 a41.026156826171174,41.026156826171174 0 0,0 0.5784079761326922,-0.4052117508995926 l 11.348858245152574 16.500011325991103" fill="#ffd013" stroke="none" /><path d="M 88.09926311788651 82.69761687909137 l -16.054938435115826 -23.342142468882308 a49.330489992108475,49.330489992108475 0 0,0 0.7037706297267087,-0.47518907075587835 l 15.650763110982577 23.61504345193685" fill="#c1ff1e" stroke="none" /><path d="M 88.39885842347998 82.49532879139004 l -13.226416651534612 -19.957007957026168 a44.94201879618337,44.94201879618337 0 0,0 0.6485196963364722,-0.4218152502461972 l 12.88092992941385 20.1817221314319" fill="#f9ff18" stroke="none" /><path d="M 88.70189139769569 82.29822771554957 l -15.44482813809518 -24.19881418180665 a49.707583040390276,49.707583040390276 0 0,0 0.7252119726400919,-0.4541276707361533 l 15.025997013082845 24.461086193865736" fill="#bcff1f" stroke="none" /><path d="M 89.00827224532344 82.1063720568725 l -15.009279556421737 -24.433871550606217 a49.67564387689217,49.67564387689217 0 0,0 0.7324506537785133,-0.4412933234552578 l 14.586466836425574 24.688611483520095" fill="#bdff1f" stroke="none" /><line stroke="#e1ed5e" stroke-width="0.3" x1="56.762969772571076" x2="54.21961505331055" y1="26.818313649435495" y2="22.513508569990535" /><path d="M 56.25429882871897 25.957352633546506 a86.0,86.0 0 0,1 42.265352541879196,-11.944610805530505" fill="none" id="id24" stroke="none" /><text fill="#e1ed5e" style="font-size:6.75px; font-family:Arial;" text-anchor="middle"><textPath startOffset="22.20632615414155" xlink:href="#id24">December</textPath></text><path d="M 89.3179101791058 81.91981866633112 l -6.940637857082617 -11.747513186223705 a34.64465169667838,34.64465169667838 0 0,0 0.5160457263486613,-0.2989269931479986 l 6.737395398268636 11.865244336761751" fill="#ff760a" stroke="none" /><path d="M 89.94658935756843 81.56283822128135 l -16.24376993670849 -29.78979222785878 a54.930690867350606,54.930690867350606 0 0,0 0.8340439466989106,-0.4455173915555179 l 15.728580943481273 30.064988345916046" fill="#7eff26" stroke="none" /><path d="M 90.58718382345135 81.22770947309562 l -15.658404400500359 -31.22807362649785 a55.933912045340406,55.933912045340406 0 0,0 0.8643886479630759,-0.4241517555567979 l 15.118544485526858 31.49298054218948" fill="#72ff27" stroke="none" /><path d="M 91.90106846888425 80.62456947434976 l -8.119674185227302 -19.425054090451567 a42.05378434607935,42.05378434607935 0 0,0 0.6702895221659246,-0.27342792605907795 l 7.784100793472997 19.56194290269422" fill="#ffde14" stroke="none" /><path d="M 92.91201910852362 80.23233633223022 l -6.089693777182211 -16.983541613636365 a39.04231293493076,39.04231293493076 0 0,0 0.6345640003659353,-0.22138691973691202 l 5.79644777275299 17.08584938654549" fill="#ffb510" stroke="none" /><path d="M 93.59665428221793 80.00007090966166 l -5.523258930628989 -17.251104630099434 a39.11372408350671,39.11372408350671 0 0,0 0.6429823657801506,-0.19977775092566924 l 5.22549119213811 17.343622515907626" fill="#ffb610" stroke="none" /><path d="M 94.28887869178378 79.79150937346287 l -4.817475660368432 -17.04637434089682 a38.714032570485685,38.714032570485685 0 0,0 0.6428411844757103,-0.1757127791836398 l 4.523336586668999 17.126773660906753" fill="#ffb010" stroke="none" /><path d="M 95.33964822691252 79.52364482259891 l -3.919657080634796 -17.221938270878788 a38.66235741444867,38.66235741444867 0 0,0 0.6501853724899817,-0.14210533924707458 l 3.622628983991294 17.28685710822173" fill="#ffaf10" stroke="none" /><path d="M 96.75951476605007 79.25152402106235 l -1.8242404498748133 -11.680414018704623 a32.82201018724442,32.82201018724442 0 0,0 0.558960427030738,-0.0823762370377452 l 1.6229110424154265 11.710084739903337" fill="#ff5b08" stroke="none" /><path d="M 98.91598698831166 79.02799685794201 l -0.48579554344741666 -9.398508646781956 a30.411055312432744,30.411055312432744 0 0,0 0.523011020133354,-0.022521954709850692 l 0.32394369092473857 9.405478328015999" fill="#ff3605" stroke="none" /></svg>